<svg width="48" height="48" viewBox="0 0 48 48" fill="none" xmlns="http://www.w3.org/2000/svg">
<g clip-path="url(#clip0_1332_297)">
<path d="M11.5859 26.4571L11.586 26.4574C11.6157 26.4274 11.6138 26.4292 11.5859 26.4571Z" fill="#516AF5"/>
<path d="M46.9358 19.8233L44.5489 19.2494C44.0299 16.9837 43.136 14.8307 41.8865 12.8287L43.0962 10.7979C43.4258 10.2446 43.3365 9.53876 42.882 9.08426L38.9177 5.12005C38.4632 4.66695 37.7589 4.5763 37.2041 4.90583L35.1733 6.11548C33.1713 4.86598 31.0183 3.97208 28.7526 3.45308L28.1787 1.0662C28.0221 0.441453 27.4605 0.00195312 26.8152 0.00195312H21.1909C20.5455 0.00195312 19.984 0.441359 19.8274 1.0662L19.2535 3.45308C16.9878 3.97208 14.8348 4.86598 12.8328 6.11548L10.802 4.90583C10.2487 4.5762 9.54286 4.66555 9.08836 5.12005L5.12395 9.08417C4.66945 9.53867 4.5802 10.2444 4.90973 10.7978L6.11939 12.8286C4.86989 14.8306 3.97598 16.9836 3.45698 19.2493L1.07011 19.8232C0.445359 19.9798 0.00585938 20.5414 0.00585938 21.1867V26.811C0.00585938 27.4564 0.445266 28.0193 1.07142 28.1745L3.4583 28.7484C3.80433 30.2497 4.32511 31.6921 4.99392 33.0755C6.02658 32.0386 11.213 26.8299 11.5858 26.4576C11.5674 26.363 11.3665 24.5619 11.3611 24.2111C11.2415 17.0461 17.0127 11.3455 24.0084 11.3455C31.052 11.3455 36.6687 17.0251 36.6421 24.0427C36.612 30.5328 31.768 36.0578 25.0026 36.5631C24.7099 36.5856 23.3867 36.7808 21.5424 36.4173L14.9432 43.0164C16.3214 43.6812 17.7583 44.1986 19.2534 44.5433L19.8273 46.9316C19.9839 47.5564 20.5455 47.9959 21.1908 47.9959H26.8151C27.4605 47.9959 28.022 47.5564 28.1786 46.9316L28.7525 44.5447C31.0182 44.0257 33.1712 43.1318 35.1732 41.8823L37.204 43.092C37.7546 43.4216 38.4617 43.3309 38.9176 42.8778L42.8819 38.9135C43.3364 38.459 43.4256 37.7533 43.0961 37.1999L41.8864 35.1691C43.1373 33.1671 44.0298 31.0141 44.5488 28.747L46.9343 28.1745C47.5605 28.0193 47.9999 27.4564 47.9999 26.811V21.1867C47.9999 20.5415 47.5605 19.9798 46.9358 19.8233Z" fill="#516AF5"/>
<path d="M33.5174 21.4287C33.3939 20.9446 33.0201 20.5638 32.5382 20.4318C32.0564 20.2996 31.5416 20.4373 31.1883 20.7906L27.9797 23.9994C26.8829 25.0961 25.0999 25.0961 24.0031 23.9994C22.9073 22.9036 22.9073 21.1186 24.0031 20.0228L27.2131 16.8128C27.5663 16.4595 27.7027 15.9439 27.5706 15.4623C27.4384 14.9807 27.0581 14.6064 26.5741 14.4834C20.641 12.9756 15.3018 16.8402 14.3225 22.1771C14.0081 23.9348 14.1482 25.6855 14.7234 27.2975C13.9233 28.0976 1.56578 40.455 1.23363 40.7874C-0.415528 42.4365 -0.415528 45.1196 1.25969 46.7948C2.91925 48.3679 5.46091 48.4341 7.21488 46.7687L20.7048 33.2788C22.865 34.0498 25.2743 34.0342 27.632 33.2022C31.8803 31.7032 34.8536 26.6723 33.5174 21.4287Z" fill="#516AF5"/>
</g>
<defs>
<clipPath id="clip0_1332_297">
<rect width="48" height="48" fill="white"/>
</clipPath>
</defs>
</svg>
