<svg width="112" height="112" viewBox="0 0 112 112" fill="none" xmlns="http://www.w3.org/2000/svg">
<g clip-path="url(#clip0_373_315)">
<path d="M100.764 44.8094C95.6764 44.8257 91.2399 48.2744 89.971 53.2022H72.5035C72.0882 50.7157 71.1141 48.3573 69.6529 46.3031L83.6982 32.2578C83.758 32.1784 83.8135 32.0946 83.8639 32.0083C89.1695 35.1785 96.0404 33.4473 99.2106 28.1418C102.381 22.8362 100.65 15.9653 95.3449 12.7951C90.0393 9.62409 83.1684 11.3553 79.9974 16.6608C77.8868 20.1933 77.8851 24.5999 79.9931 28.1341C79.9059 28.1845 79.8222 28.24 79.741 28.3007L65.6966 42.3451C63.6424 40.8848 61.2832 39.9115 58.7975 39.4962V22.0296C64.7823 20.4838 68.3806 14.3802 66.8356 8.39619C65.2907 2.41134 59.1871 -1.18692 53.2022 0.358002C47.2183 1.90378 43.6191 8.0074 45.1641 13.9914C46.1818 17.9332 49.2605 21.0119 53.2022 22.0296V39.4962C50.7157 39.9115 48.3573 40.8865 46.3031 42.3468L32.2595 28.3024C32.1792 28.2417 32.0955 28.1853 32.0083 28.1341C34.6299 23.7463 33.942 18.1399 30.3386 14.5143C25.9115 10.2855 18.9406 10.2855 14.5135 14.5143C10.1445 18.8859 10.1453 25.9713 14.5161 30.3412C16.6147 32.439 19.4601 33.6173 22.4269 33.6182C24.4418 33.6105 26.4165 33.0542 28.1383 32.0083C28.1888 32.0946 28.2443 32.1775 28.3041 32.2578L42.3468 46.3022C40.8865 48.3573 39.9115 50.7165 39.4962 53.2022H22.0296C20.4838 47.2182 14.3802 43.62 8.39619 45.1649C2.41134 46.7098 -1.18692 52.8135 0.358002 58.7983C1.90378 64.7823 8.0074 68.3806 13.9914 66.8356C17.9332 65.8179 21.0119 62.7401 22.0296 58.7983H39.4962C39.9115 61.284 40.8865 63.6441 42.3468 65.6975L28.3041 79.7427C28.2375 79.8307 28.1768 79.923 28.1212 80.0179C23.7206 77.5022 18.1904 78.1696 14.5152 81.661C10.1282 86.0155 10.1026 93.101 14.4571 97.4871C18.8124 101.873 25.8979 101.899 30.284 97.5443C33.9326 93.9221 34.6436 88.2808 32.0083 83.8665C32.0955 83.8152 32.1792 83.7597 32.2604 83.6982L46.3031 69.6537C48.3573 71.1141 50.7165 72.089 53.2022 72.5043V89.971C47.2183 91.5159 43.6191 97.6195 45.1641 103.604C46.7098 109.588 52.8135 113.187 58.7975 111.642C64.7823 110.097 68.3806 103.993 66.8356 98.0083C65.8179 94.0665 62.7401 90.9887 58.7975 89.971V72.5043C61.284 72.089 63.6433 71.1141 65.6975 69.6537L79.7419 83.6982C79.823 83.7588 79.9068 83.8144 79.9939 83.8639C76.8255 89.1703 78.5592 96.0396 83.8648 99.2071C89.1703 102.376 96.0396 100.643 99.2072 95.3372C102.376 90.0316 100.643 83.1624 95.3372 79.9939C91.8047 77.8842 87.399 77.8842 83.8656 79.9931C83.8152 79.9068 83.7597 79.823 83.6999 79.7427L69.6555 65.6983C71.1149 63.6441 72.0891 61.284 72.5035 58.7983H89.971C91.5261 64.7695 97.6281 68.3489 103.598 66.7938C109.57 65.2377 113.15 59.1367 111.594 53.1655C110.31 48.2368 105.857 44.8009 100.764 44.8094Z" fill="#FF6737"/>
</g>
<defs>
<clipPath id="clip0_373_315">
<rect width="112" height="112" fill="white"/>
</clipPath>
</defs>
</svg>
