<svg width="260" height="36" viewBox="0 0 260 36" fill="none" xmlns="http://www.w3.org/2000/svg">
<g clip-path="url(#clip0_1364_1769)">
<path d="M26.8912 35.1983H20.1684L12.5892 22.1803H6.03766V35.1983H0V0.683594H12.7176C15.3725 0.683594 17.6848 1.11182 19.5689 1.96826C21.4958 2.8247 22.9517 4.06654 23.9794 5.65096C25.0071 7.23538 25.5209 9.16238 25.5209 11.432C25.5209 13.83 24.9214 15.8855 23.7653 17.5555C22.5663 19.2256 20.8963 20.4246 18.7553 21.1954L26.8912 35.1983ZM6.03766 17.2129H12.2894C14.5161 17.2129 16.2717 16.7419 17.5135 15.757C18.7553 14.7721 19.3548 13.4018 19.3548 11.6032C19.3548 9.80471 18.7553 8.4344 17.5135 7.44949C16.2717 6.46458 14.5589 5.95072 12.2894 5.95072H6.03766V17.2129Z" fill="#0D0D13"/>
<path d="M35.8828 35.1983V0.683594H57.764V5.95072H41.9205V15.0718H56.8648V20.4246H41.9205V29.8883H57.9781V35.1983H35.8828Z" fill="#0D0D13"/>
<path d="M99.518 35.1983H92.7524L74.6822 10.0188V35.1983H68.6445V0.683594H75.453L93.4803 25.863V0.683594H99.518V35.1983Z" fill="#0D0D13"/>
<path d="M154.707 35.1983V0.683594H165.541C169.737 0.683594 173.377 1.36875 176.417 2.78188C179.457 4.19501 181.812 6.16483 183.482 8.73416C185.152 11.3035 185.966 14.3867 185.966 17.9409C185.966 21.4523 185.152 24.5355 183.482 27.1049C181.812 29.717 179.457 31.6868 176.417 33.1C173.377 34.5131 169.737 35.1983 165.541 35.1983H154.707ZM160.745 29.8883H165.755C168.709 29.8883 171.278 29.4173 173.334 28.4752C175.432 27.5331 177.016 26.1628 178.087 24.4071C179.157 22.6514 179.714 20.4674 179.714 17.9409C179.714 15.4144 179.157 13.2305 178.087 11.432C177.016 9.63342 175.389 8.30594 173.334 7.36385C171.236 6.42176 168.709 5.95072 165.755 5.95072H160.745V29.8883Z" fill="#0D0D13"/>
<path d="M195.473 35.1983V0.683594H217.354V5.95072H201.51V15.0718H216.412V20.4246H201.51V29.8883H217.568V35.1983H195.473Z" fill="#0D0D13"/>
<path d="M228.191 35.1983V0.683594H239.025C243.221 0.683594 246.861 1.36875 249.901 2.78188C252.942 4.19501 255.297 6.16483 256.967 8.73416C258.637 11.3035 259.45 14.3867 259.45 17.9409C259.45 21.4523 258.637 24.5355 256.967 27.1049C255.297 29.717 252.942 31.6868 249.901 33.1C246.861 34.5131 243.221 35.1983 239.025 35.1983H228.191ZM234.272 29.8883H239.282C242.236 29.8883 244.806 29.4173 246.861 28.4752C248.959 27.5331 250.544 26.1628 251.614 24.4071C252.727 22.6085 253.241 20.4674 253.241 17.9409C253.241 15.4144 252.685 13.2305 251.614 11.432C250.501 9.63342 248.916 8.30594 246.861 7.36385C244.763 6.42176 242.236 5.95072 239.282 5.95072H234.272V29.8883Z" fill="#0D0D13"/>
<path d="M127.131 30.5753C125.461 30.5753 123.876 30.2756 122.42 29.6333C120.964 28.9909 119.68 28.0917 118.609 26.9783C117.539 25.8221 116.682 24.4946 116.083 22.953C115.483 21.4114 115.184 19.7413 115.184 17.9428C115.184 16.444 115.398 15.0737 115.783 13.7891H109.446C109.146 15.1165 109.018 16.4869 109.018 17.9428C109.018 20.5121 109.446 22.9102 110.345 25.0941C111.244 27.278 112.486 29.1622 114.113 30.7895C115.74 32.4167 117.667 33.6585 119.851 34.5578C122.035 35.4571 124.476 35.8853 127.045 35.8853C127.387 35.8853 127.73 35.8853 128.073 35.8425V30.5325C127.816 30.5753 127.473 30.5753 127.131 30.5753Z" fill="#0D0D13"/>
<path d="M131.842 6.20907C133.298 6.8514 134.54 7.75066 135.611 8.86404C136.681 10.0202 137.495 11.3477 138.094 12.8893C138.694 14.4309 138.993 16.101 138.993 17.8995C138.993 19.698 138.694 21.3681 138.094 22.9097C137.966 23.2951 137.794 23.6805 137.58 24.0231H144.175C144.817 22.1389 145.117 20.0834 145.117 17.8995C145.117 15.2874 144.688 12.9321 143.789 10.7482C142.89 8.56429 141.648 6.68011 140.021 5.05287C138.394 3.42563 136.467 2.18378 134.283 1.28452C132.356 0.513719 130.301 0.0854977 128.074 -0.0429688V5.26698C129.444 5.39545 130.686 5.6952 131.842 6.20907Z" fill="#0D0D13"/>
<path d="M130.21 18.0261C130.21 19.7818 128.797 21.2378 126.999 21.2378C125.243 21.2378 123.787 19.8246 123.787 18.0261C123.787 16.2704 125.2 14.8145 126.999 14.8145C128.754 14.8573 130.21 16.2704 130.21 18.0261Z" fill="#516AF2"/>
</g>
<defs>
<clipPath id="clip0_1364_1769">
<rect width="259.448" height="35.885" fill="white"/>
</clipPath>
</defs>
</svg>
