<svg width="112" height="112" viewBox="0 0 112 112" fill="none" xmlns="http://www.w3.org/2000/svg">
<g clip-path="url(#clip0_373_351)">
<path d="M111.999 79.5768C111.737 64.9643 110.011 50.1877 107.18 35.2733C104.875 24.9112 96.5797 15.6821 83.3256 15.0062C73.5409 14.6037 71.6487 20.1774 60.5625 20.0702C57.5262 20.0505 54.4922 20.0505 51.4559 20.0702C40.3675 20.1774 38.4709 14.6037 28.6906 15.0062C15.4344 15.6821 6.88124 24.8871 4.82717 35.2733C1.99436 50.1877 0.268424 64.9621 0.00811151 79.5746C-0.055326 89.7486 9.98967 96.5168 16.6178 96.9805C29.4212 97.9474 39.5931 75.3702 47.3434 75.368C53.1206 75.4008 58.8956 75.403 64.6728 75.368C72.4253 75.368 82.5884 97.9496 95.4006 96.9827C102.027 96.519 112.332 89.7049 112.002 79.5768H111.999ZM41.7675 51.0649H35.7956V57.0368C35.7956 59.5568 33.7525 61.5999 31.2325 61.5999C28.7125 61.5999 26.6694 59.5568 26.6694 57.0368V51.0649H20.6975C18.1775 51.0649 16.1344 49.0218 16.1344 46.5018C16.1344 43.9818 18.1775 41.9387 20.6975 41.9387H26.6694V35.9668C26.6694 33.4468 28.7125 31.4037 31.2325 31.4037C33.7525 31.4037 35.7956 33.4468 35.7956 35.9668V41.9387H41.7675C44.2875 41.9387 46.3306 43.9818 46.3306 46.5018C46.3306 49.0218 44.2875 51.0649 41.7675 51.0649ZM78.6422 61.5977C75.07 61.694 72.0994 58.8721 72.0031 55.3021C71.909 51.719 74.7331 48.744 78.3031 48.6521C81.8775 48.5624 84.8525 51.3821 84.9444 54.9565C85.034 58.5308 82.2144 61.5058 78.6422 61.5977ZM89.4156 44.3493C85.8434 44.4499 82.8662 41.6258 82.7678 38.0537C82.6781 34.4749 85.4978 31.5043 89.0722 31.4058C92.6509 31.3118 95.6216 34.1358 95.7178 37.7102C95.8119 41.2824 92.9856 44.2596 89.4156 44.3493Z" fill="#516AF5"/>
</g>
<defs>
<clipPath id="clip0_373_351">
<rect width="112" height="112" fill="white"/>
</clipPath>
</defs>
</svg>
