<svg width="259" height="64" viewBox="0 0 259 64" fill="none" xmlns="http://www.w3.org/2000/svg">
<path d="M23.9509 47.3873H17.9632L11.2127 35.7928H5.37751V47.3873H0V16.6465H11.3271C13.6917 16.6465 15.7511 17.0279 17.4292 17.7907C19.1455 18.5535 20.4422 19.6595 21.3575 21.0707C22.2728 22.4819 22.7305 24.1982 22.7305 26.2196C22.7305 28.3555 22.1965 30.1862 21.1668 31.6736C20.0989 33.1611 18.6115 34.229 16.7046 34.9155L23.9509 47.3873ZM5.37751 31.3685H10.9457C12.9289 31.3685 14.4926 30.949 15.5986 30.0718C16.7046 29.1945 17.2385 27.9741 17.2385 26.3722C17.2385 24.7703 16.7046 23.5498 15.5986 22.6726C14.4926 21.7954 12.967 21.3377 10.9457 21.3377H5.37751V31.3685Z" fill="white"/>
<path d="M31.9594 47.3873V16.6465H51.4481V21.3377H37.3369V29.4615H50.6472V34.229H37.3369V42.658H51.6388V47.3873H31.9594Z" fill="white"/>
<path d="M88.6367 47.3873H82.6109L66.5165 24.961V47.3873H61.139V16.6465H67.203L83.2592 39.0728V16.6465H88.6367V47.3873Z" fill="white"/>
<path d="M137.791 47.3873V16.6465H147.44C151.178 16.6465 154.42 17.2567 157.128 18.5153C159.835 19.774 161.933 21.5284 163.42 23.8168C164.908 26.1052 165.632 28.8513 165.632 32.0169C165.632 35.1444 164.908 37.8905 163.42 40.1789C161.933 42.5054 159.835 44.2598 157.128 45.5185C154.42 46.7771 151.178 47.3873 147.44 47.3873H137.791ZM143.169 42.658H147.631C150.263 42.658 152.551 42.2384 154.382 41.3993C156.25 40.5603 157.661 39.3398 158.615 37.776C159.568 36.2123 160.064 34.2672 160.064 32.0169C160.064 29.7666 159.568 27.8215 158.615 26.2196C157.661 24.6177 156.212 23.4354 154.382 22.5963C152.513 21.7572 150.263 21.3377 147.631 21.3377H143.169V42.658Z" fill="white"/>
<path d="M174.1 47.3873V16.6465H193.588V21.3377H179.477V29.4615H192.749V34.229H179.477V42.658H193.779V47.3873H174.1Z" fill="white"/>
<path d="M203.241 47.3873V16.6465H212.89C216.628 16.6465 219.869 17.2567 222.577 18.5153C225.285 19.774 227.383 21.5284 228.87 23.8168C230.357 26.1052 231.082 28.8513 231.082 32.0169C231.082 35.1444 230.357 37.8905 228.87 40.1789C227.383 42.5054 225.285 44.2598 222.577 45.5185C219.869 46.7771 216.628 47.3873 212.89 47.3873H203.241ZM208.657 42.658H213.119C215.75 42.658 218.039 42.2384 219.869 41.3993C221.738 40.5603 223.149 39.3398 224.103 37.776C225.094 36.1742 225.552 34.2672 225.552 32.0169C225.552 29.7666 225.056 27.8215 224.103 26.2196C223.111 24.6177 221.7 23.4354 219.869 22.5963C218.001 21.7572 215.75 21.3377 213.119 21.3377H208.657V42.658Z" fill="white"/>
<path d="M113.23 43.2712C111.743 43.2712 110.332 43.0042 109.035 42.4321C107.738 41.86 106.594 41.0591 105.641 40.0674C104.687 39.0377 103.924 37.8553 103.39 36.4823C102.857 35.1092 102.59 33.6218 102.59 32.0199C102.59 30.685 102.78 29.4645 103.124 28.3203H97.479C97.2121 29.5027 97.0977 30.7231 97.0977 32.0199C97.0977 34.3083 97.479 36.4441 98.2799 38.3893C99.0809 40.3344 100.187 42.0126 101.636 43.4619C103.085 44.9112 104.802 46.0173 106.747 46.8182C108.692 47.6191 110.866 48.0006 113.154 48.0006C113.459 48.0006 113.764 48.0005 114.069 47.9624V43.2331C113.84 43.2712 113.535 43.2712 113.23 43.2712Z" fill="white"/>
<path d="M117.427 21.5684C118.724 22.1405 119.83 22.9415 120.783 23.9331C121.736 24.9629 122.461 26.1452 122.995 27.5183C123.529 28.8913 123.796 30.3788 123.796 31.9807C123.796 33.5825 123.529 35.07 122.995 36.443C122.881 36.7863 122.728 37.1296 122.537 37.4347H128.411C128.983 35.7565 129.25 33.9258 129.25 31.9807C129.25 29.6541 128.868 27.5564 128.067 25.6113C127.267 23.6661 126.161 21.988 124.711 20.5387C123.262 19.0893 121.546 17.9833 119.601 17.1823C117.885 16.4958 116.054 16.1144 114.071 16V20.7294C115.291 20.8438 116.397 21.1108 117.427 21.5684Z" fill="white"/>
<path d="M115.973 32.091C115.973 33.6547 114.715 34.9515 113.113 34.9515C111.549 34.9515 110.252 33.6928 110.252 32.091C110.252 30.5272 111.511 29.2305 113.113 29.2305C114.676 29.2686 115.973 30.5272 115.973 32.091Z" fill="#516AF2"/>
</svg>
