<svg width="48" height="48" viewBox="0 0 48 48" fill="none" xmlns="http://www.w3.org/2000/svg">
<path d="M24 15.9375C28.401 15.9375 31.9688 12.3698 31.9688 7.96875C31.9688 3.56773 28.401 0 24 0C19.599 0 16.0312 3.56773 16.0312 7.96875C16.0312 12.3698 19.599 15.9375 24 15.9375Z" fill="#516AF5"/>
<path d="M29.8561 17.0176C28.1688 18.1132 26.1578 18.7505 24.0005 18.7505C21.8433 18.7505 19.8322 18.1132 18.145 17.0176C16.2798 17.7304 14.5505 18.782 13.0469 20.1316L24.0005 24.2392L34.9542 20.1316C33.4505 18.782 31.7212 17.7303 29.8561 17.0176Z" fill="#516AF5"/>
<path d="M40.875 29.0625H39.9375C39.1609 29.0625 38.5312 29.6921 38.5312 30.4688V34.2188C38.5312 34.9954 39.1609 35.625 39.9375 35.625H40.875C42.6872 35.625 44.1562 34.1559 44.1562 32.3438C44.1562 30.5316 42.6872 29.0625 40.875 29.0625Z" fill="#516AF5"/>
<path d="M8.199 21.9634C7.81988 22.2262 7.59375 22.658 7.59375 23.1193V26.25H8.0625C10.3887 26.25 12.2812 28.1426 12.2812 30.4688V34.2188C12.2812 36.545 10.3887 38.4375 8.0625 38.4375H7.59375V41.4005C7.59375 41.9867 7.95741 42.5115 8.50622 42.7172L22.5938 48V26.715L9.49378 21.8025C9.06187 21.6405 8.57803 21.7005 8.199 21.9634Z" fill="#516AF5"/>
<path d="M35.7188 34.2188V30.4688C35.7188 28.1426 37.6113 26.25 39.9375 26.25H40.4062V23.1193C40.4062 22.658 40.1801 22.2262 39.801 21.9634C39.4219 21.7005 38.9379 21.6405 38.5062 21.8025L25.4062 26.715V48L39.4938 42.7172C40.0426 42.5115 40.4062 41.9867 40.4062 41.4005V38.4375H39.9375C37.6113 38.4375 35.7188 36.545 35.7188 34.2188Z" fill="#516AF5"/>
<path d="M9.46875 34.2188V30.4688C9.46875 29.6921 8.83913 29.0625 8.0625 29.0625H7.125C5.31281 29.0625 3.84375 30.5316 3.84375 32.3438C3.84375 34.1559 5.31281 35.625 7.125 35.625H8.0625C8.83913 35.625 9.46875 34.9954 9.46875 34.2188Z" fill="#516AF5"/>
</svg>
