<svg width="28" height="28" viewBox="0 0 28 28" fill="none" xmlns="http://www.w3.org/2000/svg">
<path d="M22.747 8.7469C22.747 4.20204 19.2806 0.466832 14.8474 0.0408705C14.5475 0.0120502 14.2417 0.0269799 13.9352 0.0569487C9.62195 0.479136 5.80794 3.97203 5.8174 8.76446C5.82325 11.7412 7.31617 14.3689 9.59281 15.9443C10.5155 16.5828 11.0603 17.6385 11.0603 18.7606V20.1322L14.0005 21.2591L17.497 20.1323V18.7653C17.497 17.6393 18.048 16.5839 18.9738 15.9428C21.2537 14.3642 22.747 11.7299 22.747 8.7469Z" fill="#FFE177"/>
<path d="M10.7196 15.9439C8.44292 14.3686 6.95 11.7408 6.94415 8.76407C6.93518 4.23376 10.4181 0.468417 14.8473 0.0404872C14.5474 0.0116669 14.2431 -0.00200499 13.9351 0.000237201C9.14281 0.0352372 5.24452 3.97164 5.25392 8.76413C5.25977 11.7409 6.75269 14.3686 9.02933 15.944C9.95202 16.5825 10.4969 17.6382 10.4969 18.7602V20.1319L11.312 20.6953L12.187 20.1319V18.7602C12.1871 17.6381 11.6422 16.5824 10.7196 15.9439Z" fill="#FFD15B"/>
<path d="M14.8721 20.5483C14.8407 20.5483 14.8087 20.5448 14.7768 20.5374C14.5494 20.4849 14.4076 20.258 14.4601 20.0306L16.8833 9.52983L15.9358 10.0036C15.8167 10.0631 15.6766 10.0631 15.5575 10.0034L13.9999 9.22309L12.4354 10.0037C12.3166 10.0631 12.1768 10.0631 12.0578 10.0036L11.1102 9.52983L13.5334 20.0306C13.5859 20.258 13.4441 20.4849 13.2167 20.5374C12.9894 20.5897 12.7625 20.4481 12.71 20.2207L10.0851 8.84569C10.0483 8.68622 10.1068 8.51991 10.2354 8.41869C10.364 8.31746 10.5395 8.29958 10.6858 8.37275L12.247 9.15336L13.8116 8.37259C13.9306 8.3132 14.0706 8.3133 14.1896 8.37291L15.747 9.15319L17.3078 8.3728C17.4542 8.29958 17.6295 8.31746 17.7581 8.41874C17.8867 8.51997 17.9452 8.68627 17.9084 8.84574L15.2835 20.2207C15.2384 20.416 15.0645 20.5483 14.8721 20.5483Z" fill="#FFC344"/>
<path d="M14.8757 28.0009H14.6647L13.682 27.9446C12.7175 27.9446 11.9355 27.219 11.9355 26.2544V24.8125H13.9972L16.6222 25.3759V26.2544C16.6222 27.219 15.8402 28.0009 14.8757 28.0009Z" fill="#B9ACAC"/>
<path d="M13.0622 26.2544V25.3759L12.1755 24.8125L11.3721 25.3759V26.2544C11.3721 27.219 12.154 28.0009 13.1186 28.0009H14.8087C13.8442 28.0009 13.0622 27.219 13.0622 26.2544Z" fill="#9E9797"/>
<path d="M18.3717 20.5194V21.4523L17.8083 21.8749L18.3717 22.2974V23.2022L17.8083 23.6281C17.8083 23.7723 18.3542 23.9132 18.321 24.0473C18.1333 24.8095 17.4455 25.3746 16.6252 25.3746H12.8434L11.9311 25.3183C11.1125 25.3183 10.4251 24.796 10.2364 24.0473C10.2026 23.9144 10.1846 23.774 10.1846 23.6281V20.6884L11.3114 20.125H17.9773C18.1948 20.125 18.3717 20.3014 18.3717 20.5194Z" fill="#E1D3CE"/>
<path d="M11.3122 23.6285V20.125H10.0165C9.79866 20.125 9.62212 20.3016 9.62212 20.5194V21.4524L10.1855 21.875L9.62207 22.2975V23.2024L10.1855 23.6285C10.1855 23.7729 9.63962 23.9133 9.67266 24.0475C9.86034 24.8097 10.5484 25.375 11.3686 25.375H13.0587C12.0942 25.375 11.3122 24.5931 11.3122 23.6285Z" fill="#CDBFBA"/>
<path d="M18.3717 21.4531V22.2982H11.3116L10.1846 21.8757L11.3116 21.4531H18.3717Z" fill="#B9ACAC"/>
<path d="M18.3717 23.2031V23.629C18.3717 23.7732 18.3542 23.9141 18.321 24.0482H11.3622C11.3622 24.0482 10.1846 23.7749 10.1846 23.629L11.3116 23.2031H18.3717Z" fill="#B9ACAC"/>
<path d="M9.62207 21.4531H11.3122V22.2982H9.62207V21.4531Z" fill="#9E9797"/>
<path d="M11.3122 23.2031H9.62207V23.6292C9.62207 23.7736 9.63962 23.914 9.67266 24.0482H11.3628C11.3297 23.914 11.3122 23.7736 11.3122 23.6292V23.2031Z" fill="#9E9797"/>
<path d="M10.4971 8.75C10.9803 8.75 11.3721 8.35825 11.3721 7.875C11.3721 7.39175 10.9803 7 10.4971 7C10.0138 7 9.62207 7.39175 9.62207 7.875C9.62207 8.35825 10.0138 8.75 10.4971 8.75Z" fill="#FEB137"/>
<path d="M17.4971 8.75C17.9803 8.75 18.3721 8.35825 18.3721 7.875C18.3721 7.39175 17.9803 7 17.4971 7C17.0138 7 16.6221 7.39175 16.6221 7.875C16.6221 8.35825 17.0138 8.75 17.4971 8.75Z" fill="#FEB137"/>
</svg>
