<svg width="151" height="22" viewBox="0 0 151 22" fill="none" xmlns="http://www.w3.org/2000/svg">
<g clip-path="url(#clip0_591_74)">
<g clip-path="url(#clip1_591_74)">
<path d="M15.6508 21.0335H11.7381L7.32695 13.4397H3.51395V21.0335H0V0.899902H7.40172C8.94686 0.899902 10.2926 1.1497 11.3892 1.64929C12.5106 2.14888 13.358 2.87329 13.9561 3.79753C14.5542 4.72178 14.8533 5.84586 14.8533 7.16978C14.8533 8.56864 14.5044 9.76766 13.8315 10.7419C13.1337 11.7161 12.1617 12.4155 10.9157 12.8651L15.6508 21.0335ZM3.51395 10.542H7.1525C8.44842 10.542 9.47021 10.2672 10.1929 9.69272C10.9157 9.11819 11.2646 8.31884 11.2646 7.2697C11.2646 6.22055 10.9157 5.42121 10.1929 4.84668C9.47021 4.27215 8.47334 3.97239 7.1525 3.97239H3.51395V10.542Z" fill="#0D0D13"/>
<path d="M20.8848 21.0335V0.899902H33.6197V3.97239H24.3987V9.29305H33.0964V12.4155H24.3987V17.936H33.7443V21.0335H20.8848Z" fill="#0D0D13"/>
<path d="M57.9177 21.0335H53.9801L43.4632 6.34545V21.0335H39.9492V0.899902H43.9118L54.4037 15.5879V0.899902H57.9177V21.0335Z" fill="#0D0D13"/>
<path d="M90.041 21.0335V0.899902H96.3462C98.7885 0.899902 100.907 1.29958 102.676 2.1239C104.446 2.94823 105.816 4.09729 106.788 5.59607C107.76 7.09484 108.234 8.89337 108.234 10.9667C108.234 13.015 107.76 14.8135 106.788 16.3123C105.816 17.8361 104.446 18.9851 102.676 19.8095C100.907 20.6338 98.7885 21.0335 96.3462 21.0335H90.041ZM93.555 17.936H96.4708C98.1904 17.936 99.6857 17.6612 100.882 17.1117C102.103 16.5621 103.025 15.7628 103.648 14.7386C104.271 13.7144 104.595 12.4405 104.595 10.9667C104.595 9.49288 104.271 8.21892 103.648 7.16978C103.025 6.12064 102.078 5.34627 100.882 4.79672C99.6608 4.24717 98.1904 3.97239 96.4708 3.97239H93.555V17.936Z" fill="#0D0D13"/>
<path d="M113.768 21.0335V0.899902H126.503V3.97239H117.282V9.29305H125.954V12.4155H117.282V17.936H126.627V21.0335H113.768Z" fill="#0D0D13"/>
<path d="M132.807 21.0335V0.899902H139.112C141.554 0.899902 143.672 1.29958 145.442 2.1239C147.211 2.94823 148.582 4.09729 149.554 5.59607C150.526 7.09484 150.999 8.89337 150.999 10.9667C150.999 13.015 150.526 14.8135 149.554 16.3123C148.582 17.8361 147.211 18.9851 145.442 19.8095C143.672 20.6338 141.554 21.0335 139.112 21.0335H132.807ZM136.345 17.936H139.261C140.981 17.936 142.476 17.6612 143.672 17.1117C144.894 16.5621 145.816 15.7628 146.439 14.7386C147.087 13.6895 147.386 12.4405 147.386 10.9667C147.386 9.49288 147.062 8.21892 146.439 7.16978C145.791 6.12064 144.869 5.34627 143.672 4.79672C142.451 4.24717 140.981 3.97239 139.261 3.97239H136.345V17.936Z" fill="#0D0D13"/>
<path d="M73.993 18.3355C73.0211 18.3355 72.099 18.1606 71.2516 17.7859C70.4043 17.4112 69.6566 16.8866 69.0336 16.2372C68.4106 15.5627 67.9121 14.7884 67.5632 13.8891C67.2143 12.9898 67.0399 12.0156 67.0399 10.9665C67.0399 10.0922 67.1645 9.29284 67.3888 8.54346H63.7004C63.5259 9.31782 63.4512 10.1172 63.4512 10.9665C63.4512 12.4653 63.7004 13.8641 64.2237 15.1381C64.7471 16.412 65.4698 17.5111 66.4168 18.4604C67.3639 19.4096 68.4853 20.134 69.7563 20.6586C71.0273 21.1831 72.4479 21.4329 73.9432 21.4329C74.1425 21.4329 74.3419 21.4329 74.5413 21.4079V18.3105C74.3918 18.3355 74.1924 18.3355 73.993 18.3355Z" fill="#0D0D13"/>
<path d="M76.7341 4.12212C77.5814 4.49681 78.3042 5.02138 78.9272 5.67085C79.5503 6.3453 80.0238 7.11967 80.3727 8.01893C80.7216 8.9182 80.896 9.8924 80.896 10.9415C80.896 11.9907 80.7216 12.9649 80.3727 13.8642C80.2979 14.089 80.1982 14.3138 80.0736 14.5136H83.9115C84.2854 13.4145 84.4598 12.2155 84.4598 10.9415C84.4598 9.41779 84.2106 8.04391 83.6872 6.76995C83.1639 5.496 82.4412 4.39689 81.4941 3.44767C80.5471 2.49844 79.4256 1.77404 78.1546 1.24946C77.0332 0.799832 75.8369 0.550036 74.541 0.475098V3.57257C75.3385 3.64751 76.0612 3.82236 76.7341 4.12212Z" fill="#0D0D13"/>
<path d="M75.7871 11.0165C75.7871 12.0407 74.9647 12.89 73.9179 12.89C72.8962 12.89 72.0488 12.0657 72.0488 11.0165C72.0488 9.99237 72.8712 9.14307 73.9179 9.14307C74.9397 9.16805 75.7871 9.99237 75.7871 11.0165Z" fill="#516AF2"/>
</g>
</g>
<defs>
<clipPath id="clip0_591_74">
<rect width="151" height="21" fill="white" transform="translate(0 0.5)"/>
</clipPath>
<clipPath id="clip1_591_74">
<rect width="151" height="20.9329" fill="white" transform="translate(0 0.5)"/>
</clipPath>
</defs>
</svg>
