<svg width="112" height="112" viewBox="0 0 112 112" fill="none" xmlns="http://www.w3.org/2000/svg">
<path d="M65.7941 2.1543H46.2074L42.8281 22.4307H69.1736L65.7941 2.1543Z" fill="#FF6737"/>
<path d="M102.924 4.3113C102.495 3.0232 101.289 2.1543 99.9312 2.1543H72.1895L75.5687 22.4307H108.964L102.924 4.3113Z" fill="#FF6737"/>
<path d="M69.7444 28.7402H42.2598V49.0167H69.7444V28.7402Z" fill="#FF6737"/>
<path d="M76.0527 28.7402V49.0163H96.7777V69.7418H15.2231V49.0163H35.9482V28.7402H2.1543V45.8616C2.1543 47.6041 3.56692 49.0165 5.30934 49.0165H8.91304V72.897V104.588V106.691C8.91304 108.433 10.3257 109.846 12.0681 109.846H99.9328C101.675 109.846 103.088 108.433 103.088 106.691V104.588V72.897V49.0165H106.692C108.434 49.0165 109.847 47.6041 109.847 45.8616V28.7402H76.0527Z" fill="#FF6737"/>
<path d="M12.0681 2.15332C10.7101 2.15332 9.50448 3.02222 9.07497 4.31053L3.03516 22.4298H36.4303L39.8098 2.15332H12.0681Z" fill="#FF6737"/>
</svg>
