<svg width="25" height="20" viewBox="0 0 25 20" fill="none" xmlns="http://www.w3.org/2000/svg">
<path d="M24.8854 17.4721C24.8621 17.5541 24.8364 17.636 24.8163 17.7186C24.4645 19.1741 22.9944 20.0445 21.5808 19.5934C20.455 19.2338 19.3449 18.8234 18.2303 18.4289C18.1531 18.3966 18.0881 18.34 18.045 18.2675C17.8421 17.9295 17.6417 17.589 17.4589 17.2396C17.4383 17.1936 17.4277 17.1437 17.4277 17.0932C17.4277 17.0427 17.4383 16.9928 17.4589 16.9467C19.8969 12.6123 22.3399 8.28011 24.788 3.9503C24.8172 3.90547 24.8497 3.86299 24.8854 3.82324V17.4721Z" fill="black"/>
<path d="M8.70009 12.1949C8.70009 14.5722 8.70009 16.9501 8.70449 19.3274C8.70449 19.518 8.65297 19.6076 8.47518 19.6743C7.77656 19.9361 7.09303 19.917 6.42394 19.5879C5.02483 18.8967 3.62509 18.2061 2.23603 17.4914C1.30183 17.0143 0.814305 16.217 0.811792 15.1573C0.802996 11.3057 0.802368 7.45403 0.809907 3.60239C0.809907 1.61389 2.82533 0.383301 4.5794 1.29115C5.5268 1.78161 6.47106 2.27841 7.41218 2.78158C7.51905 2.84203 7.60848 2.92962 7.67165 3.0357C7.98577 3.56427 8.29424 4.09793 8.59078 4.63794C8.65758 4.7605 8.69401 4.89762 8.69695 5.03754C8.70239 7.42375 8.70344 9.80953 8.70009 12.1949Z" fill="black"/>
<path d="M16.5499 15.6658L15.2231 13.354C14.1387 11.4641 13.0537 9.57474 11.9681 7.68577C11.9273 7.63078 11.9053 7.56391 11.9053 7.49518C11.9053 7.42645 11.9273 7.35957 11.9681 7.30458C12.9988 5.61298 14.025 3.91884 15.0465 2.22215C15.7238 1.11164 16.9024 0.6917 18.1394 1.0678C19.9613 1.62052 21.7889 2.14146 23.6146 2.67576C23.6812 2.69545 23.7478 2.71832 23.8395 2.74755L16.5499 15.6658Z" fill="black"/>
<path d="M15.4958 17.4835L13.4445 16.7675C12.3947 16.4016 11.3456 16.0344 10.292 15.6735C10.1663 15.6297 10.1035 15.5789 10.1035 15.4289C10.1085 12.7907 10.11 10.1525 10.1079 7.51432C10.1079 7.47112 10.1148 7.42792 10.1236 7.33008C10.2003 7.45714 10.2493 7.53083 10.2951 7.60961L15.5724 16.812C15.7647 17.1424 15.7647 17.1424 15.4958 17.4835Z" fill="black"/>
</svg>
