<svg width="112" height="112" viewBox="0 0 112 112" fill="none" xmlns="http://www.w3.org/2000/svg">
<g clip-path="url(#clip0_373_345)">
<path fill-rule="evenodd" clip-rule="evenodd" d="M55.7544 88.0769C46.8816 88.0769 38.9229 83.7797 33.3912 77.0134C32.4351 75.842 30.8906 75.3219 29.4249 75.6739L10.739 80.1497C7.40842 80.9429 4.79754 83.5223 3.96227 86.8423L-0.597583 104.945C-0.89702 106.122 -0.634356 107.372 0.11161 108.328C0.86283 109.284 2.00805 109.846 3.22155 109.846H108.287C109.501 109.846 110.646 109.29 111.392 108.334C112.138 107.377 112.406 106.127 112.112 104.95L107.625 87.0262C106.795 83.7061 104.19 81.1215 100.864 80.3178L82.0155 75.7684C80.5499 75.4164 79.0107 75.9313 78.0493 77.0975C72.5229 83.8165 64.5904 88.0769 55.7544 88.0769Z" fill="#FF6737"/>
<path fill-rule="evenodd" clip-rule="evenodd" d="M79.3927 23.168H32.1132C27.0332 23.168 22.9199 27.2865 22.9199 32.3612V45.4944C22.9199 50.5691 27.0332 54.6877 32.1132 54.6877H79.3927C84.4727 54.6877 88.586 50.5691 88.586 45.4944V32.3612C88.586 27.2865 84.4727 23.168 79.3927 23.168ZM39.9931 42.8678H45.2464C47.4212 42.8678 49.1863 41.1027 49.1863 38.9278C49.1863 36.753 47.4212 34.9879 45.2464 34.9879H39.9931C37.8182 34.9879 36.0531 36.753 36.0531 38.9278C36.0531 41.1027 37.8182 42.8678 39.9931 42.8678Z" fill="#FF6737"/>
<path fill-rule="evenodd" clip-rule="evenodd" d="M30.3236 59.8301C34.5157 70.7464 44.3814 78.3269 55.7548 78.3269C67.1281 78.3269 76.9938 70.7464 81.1859 59.8301C80.6028 59.9036 30.9067 59.9036 30.3236 59.8301ZM29.709 18.1138C30.4917 17.9824 81.0178 17.9824 81.8005 18.1138C80.6816 14.9565 78.9848 12.0567 76.7837 9.61396C72.4655 4.81246 66.5923 2.1543 60.4827 2.1543C57.3675 2.1543 54.1368 2.1543 51.0163 2.1543C44.912 2.1543 39.0388 4.81246 34.7206 9.6087C32.5247 12.0567 30.8227 14.9565 29.709 18.1138Z" fill="#FF6737"/>
</g>
<defs>
<clipPath id="clip0_373_345">
<rect width="112" height="112" fill="white"/>
</clipPath>
</defs>
</svg>
