<svg width="25" height="24" viewBox="0 0 25 24" fill="none" xmlns="http://www.w3.org/2000/svg">
<path d="M11.6102 0H13.0168C13.0839 0.0174899 13.1521 0.0306698 13.2209 0.0394591C15.1961 0.184143 17.0353 0.768513 18.6955 1.84268C21.6733 3.76866 23.505 6.47756 24.1337 9.98128C24.2114 10.4197 24.2546 10.8581 24.3135 11.2966V12.7027C24.2955 12.77 24.2822 12.8384 24.2734 12.9075C24.2137 13.7646 24.0583 14.6123 23.81 15.4348C21.8755 21.9449 14.9174 25.5407 8.46026 23.3636C5.89295 22.496 3.69549 20.7836 2.22658 18.506C0.757659 16.2284 0.104034 13.5201 0.372392 10.8231C0.602221 8.43799 1.47457 6.2978 2.99821 4.44698C4.90072 2.12954 7.32865 0.692727 10.292 0.180385C10.7285 0.104598 11.1706 0.0626335 11.6102 0ZM5.38731 11.2283C5.39733 11.14 5.40923 11.0717 5.41173 11.0028C5.46109 9.74702 5.63542 8.49925 5.93213 7.27801C5.98912 7.04439 6.15006 6.7688 6.0768 6.58905C5.99914 6.39613 5.70105 6.29216 5.49878 6.15061L5.47999 6.13683L4.31707 5.24368C2.87046 6.97675 2.05384 8.96035 1.87474 11.2283H5.38731ZM4.31644 18.7587C4.34267 18.749 4.36801 18.7371 4.39221 18.723C4.93078 18.3241 5.46496 17.9188 6.00979 17.5292C6.12564 17.4466 6.10372 17.3708 6.07617 17.2724C5.6889 15.8729 5.46778 14.4327 5.41737 12.9814C5.4111 12.8073 5.35474 12.7591 5.18127 12.7603C4.1436 12.7678 3.1053 12.7641 2.06762 12.7647C2.00279 12.7681 1.9382 12.775 1.87411 12.7854C2.05823 15.0496 2.87171 17.0307 4.31644 18.7587ZM18.5183 6.58466C18.5214 6.60032 18.5283 6.63727 18.5383 6.6736C18.9312 8.0958 19.1567 9.55901 19.2103 11.0335C19.2159 11.1957 19.2729 11.2446 19.4326 11.2433C20.4784 11.2371 21.5242 11.2433 22.57 11.2396C22.6226 11.2396 22.6752 11.2296 22.7516 11.2214C22.57 8.95993 21.7584 6.97069 20.3168 5.2537L18.5183 6.58466ZM19.2378 12.7772C19.2002 13.2476 19.1702 13.6973 19.1282 14.1464C19.0254 15.2101 18.8321 16.263 18.5502 17.2937C18.5339 17.3564 18.5433 17.4628 18.5821 17.4917C19.1533 17.9101 19.7313 18.3184 20.3118 18.7324C21.5148 17.6 22.8882 14.2247 22.7191 12.7772H19.2378ZM7.51088 7.273C7.17116 8.56423 6.97728 9.88948 6.93286 11.2239H11.5407V8.24695C10.1519 8.15376 8.78905 7.82439 7.51088 7.273ZM7.51088 16.6831C8.17657 16.4764 8.82097 16.2409 9.48416 16.0818C10.1473 15.9227 10.8456 15.835 11.5338 15.7147V12.7772H6.95603C6.874 13.371 7.2178 15.7836 7.509 16.6831H7.51088ZM13.0882 11.2271H17.696C17.652 9.892 17.4573 8.56619 17.1155 7.27488C15.8383 7.82638 14.4762 8.15515 13.0882 8.24695V11.2271ZM17.6966 12.786H13.09V15.7624C14.477 15.8496 15.8386 16.1746 17.1155 16.7231C17.454 15.4363 17.6483 14.1158 17.6948 12.786H17.6966ZM13.0888 17.2956V22.3307C14.4615 22.0589 15.9632 20.1386 16.6176 18.1863C15.5043 17.6812 14.3096 17.3794 13.09 17.295L13.0888 17.2956ZM16.6364 5.79297C16.55 5.58816 16.4742 5.39275 16.3859 5.20234C15.8793 4.11126 15.2718 3.09159 14.325 2.31556C13.9661 2.00828 13.5447 1.78261 13.09 1.65415V6.69051C13.8741 6.73436 15.8186 6.24331 16.6364 5.79297ZM7.9743 5.80049C9.09802 6.31474 10.3054 6.62178 11.5382 6.7068V1.62283C9.58811 2.39573 8.75146 4.05489 7.9743 5.80049ZM7.96866 18.2063C8.17281 18.636 8.35192 19.0506 8.56171 19.449C9.04266 20.3622 9.62631 21.1958 10.4705 21.8184C10.7879 22.065 11.1516 22.2452 11.5401 22.3483V17.2937C10.3048 17.3829 9.09534 17.6919 7.96866 18.2063ZM16.6295 2.46087L18.0498 5.04826L19.2328 4.1501C18.4564 3.45735 17.5785 2.88766 16.6295 2.46087ZM19.2341 19.8548L18.0505 18.9598C17.5607 19.8492 17.0904 20.7048 16.6283 21.5453C17.5781 21.1182 18.4569 20.5481 19.2341 19.8548ZM6.57716 5.04701L7.99809 2.45899C7.04952 2.88654 6.17201 3.45685 5.39607 4.1501C5.81315 4.46828 6.20893 4.76829 6.57716 5.04701ZM7.99622 21.5422L6.57716 18.956L5.3942 19.8548C6.17129 20.5453 7.04834 21.1141 7.99559 21.5422H7.99622Z" fill="black"/>
</svg>
