<svg width="112" height="112" viewBox="0 0 112 112" fill="none" xmlns="http://www.w3.org/2000/svg">
<path d="M62.0725 74.1761L55.9943 63.6201L49.9238 74.1761L56.0021 84.731L62.0725 74.1761Z" fill="#516AF5"/>
<path d="M55.997 50.2197C42.7821 50.2197 32.0312 60.9628 32.0312 74.1664C32.0312 87.3813 42.7833 98.1322 55.997 98.1322C69.213 98.1322 79.9639 87.3802 79.9639 74.1664C79.9639 60.9628 69.213 50.2197 55.997 50.2197ZM64.3343 74.7354L56.9725 87.537C56.772 87.8842 56.4024 88.0981 56.0015 88.0981C55.6016 88.0981 55.2309 87.8842 55.0316 87.537L47.662 74.7354C47.4626 74.3893 47.4615 73.9648 47.6608 73.6176L55.0226 60.816C55.4213 60.1228 56.566 60.1228 56.9636 60.816L64.3332 73.6176C64.5325 73.9626 64.5336 74.3882 64.3343 74.7354Z" fill="#516AF5"/>
<path d="M78.5337 46.6367C77.0553 47.3871 75.3865 47.7903 73.6505 47.7903H38.3369C36.5897 47.7903 34.9321 47.3871 33.4537 46.6367C25.2889 53.3455 20.3945 63.4591 20.3945 74.1663C20.3945 93.7887 36.3657 109.76 55.9881 109.76C75.6217 109.76 91.5929 93.7887 91.5929 74.1663C91.5929 63.4591 86.6985 53.3343 78.5337 46.6367ZM55.9971 100.372C41.5469 100.372 29.7913 88.6166 29.7913 74.1663C29.7913 59.7262 41.5469 47.9796 55.9971 47.9796C70.4473 47.9796 82.204 59.7262 82.204 74.1663C82.204 88.6166 70.4473 100.372 55.9971 100.372Z" fill="#516AF5"/>
<path d="M24.2034 20.9778L30.061 39.4802C31.2146 43.109 34.541 45.5506 38.3378 45.5506H73.6514C77.4594 45.5506 80.7858 43.109 81.9394 39.4802L87.797 20.9778C90.4737 20.653 92.557 18.3682 92.557 15.6018C92.557 12.6226 90.1377 10.2034 87.1586 10.2034C84.1794 10.2034 81.749 12.6226 81.749 15.6018C81.749 17.3938 82.6226 18.9842 83.9778 19.9698L70.5266 28.3922L58.3186 12.5218C60.1442 11.6594 61.3986 9.80023 61.3986 7.64983C61.3986 4.67063 58.9794 2.24023 56.0002 2.24023C53.021 2.24023 50.5906 4.67063 50.5906 7.64983C50.5906 9.80023 51.8562 11.6594 53.6818 12.5218L41.4738 28.3922L28.0114 19.9698C29.3666 18.9954 30.2514 17.3938 30.2514 15.6018C30.2514 12.6226 27.821 10.2034 24.8418 10.2034C21.8626 10.2034 19.4434 12.6226 19.4434 15.6018C19.4434 18.3682 21.5266 20.653 24.2034 20.9778Z" fill="#516AF5"/>
</svg>
