<svg width="48" height="48" viewBox="0 0 48 48" fill="none" xmlns="http://www.w3.org/2000/svg">
<path d="M34.5 27C32.72 27 30.9799 27.5278 29.4999 28.5168C28.0198 29.5057 26.8663 30.9113 26.1851 32.5558C25.5039 34.2004 25.3257 36.01 25.6729 37.7558C26.0202 39.5016 26.8774 41.1053 28.136 42.364C29.3947 43.6226 30.9984 44.4798 32.7442 44.8271C34.49 45.1743 36.2996 44.9961 37.9442 44.3149C39.5887 43.6337 40.9943 42.4802 41.9832 41.0001C42.9722 39.5201 43.5 37.78 43.5 36C43.4972 33.6139 42.5481 31.3263 40.8609 29.6391C39.1737 27.9519 36.8861 27.0028 34.5 27ZM37.5 37.5H36V39C36 39.3978 35.842 39.7794 35.5607 40.0607C35.2794 40.342 34.8978 40.5 34.5 40.5C34.1022 40.5 33.7206 40.342 33.4393 40.0607C33.158 39.7794 33 39.3978 33 39V37.5H31.5C31.1022 37.5 30.7206 37.342 30.4393 37.0607C30.158 36.7794 30 36.3978 30 36C30 35.6022 30.158 35.2206 30.4393 34.9393C30.7206 34.658 31.1022 34.5 31.5 34.5H33V33C33 32.6022 33.158 32.2206 33.4393 31.9393C33.7206 31.658 34.1022 31.5 34.5 31.5C34.8978 31.5 35.2794 31.658 35.5607 31.9393C35.842 32.2206 36 32.6022 36 33V34.5H37.5C37.8978 34.5 38.2794 34.658 38.5607 34.9393C38.842 35.2206 39 35.6022 39 36C39 36.3978 38.842 36.7794 38.5607 37.0607C38.2794 37.342 37.8978 37.5 37.5 37.5Z" fill="#FF5D29"/>
<path d="M22.5 36.0001C22.504 33.0242 23.6121 30.1556 25.6098 27.9498C27.6074 25.7441 30.3525 24.358 33.3135 24.0601C32.557 23.1032 31.5931 22.3306 30.4945 21.8005C29.3959 21.2705 28.1913 20.9968 26.9715 21.0001C26.7386 21.0001 26.509 21.0543 26.3007 21.1585C26.0924 21.2626 25.9112 21.4138 25.7715 21.6001C23.2995 24.8656 15.705 24.8656 13.233 21.6001C13.0928 21.4143 12.9115 21.2635 12.7033 21.1594C12.4952 21.0553 12.2657 21.0008 12.033 21.0001C10.0082 20.9899 8.05366 21.742 6.55793 23.1068C5.06219 24.4716 4.13477 26.3493 3.96 28.3666L3 39.0001C3 40.5914 3.63214 42.1175 4.75736 43.2427C5.88258 44.368 7.4087 45.0001 9 45.0001H26.589C25.3055 43.8779 24.2767 42.4944 23.5715 40.9422C22.8663 39.39 22.501 37.705 22.5 36.0001Z" fill="#FF5D29"/>
<path d="M19.5 3C7.5 3 7.5 21 19.5 21C31.5 21 31.5 3 19.5 3Z" fill="#FF5D29"/>
</svg>
