<svg width="36" height="36" viewBox="0 0 36 36" fill="none" xmlns="http://www.w3.org/2000/svg">
<path d="M13.0771 25.6222L10.377 22.9221C10.2389 22.7806 10.0448 22.7084 9.84778 22.725C9.65211 22.7391 9.4722 22.8377 9.355 22.995L1.93389 33.1203C1.71019 33.4185 1.77062 33.8416 2.06887 34.0653C2.30891 34.2453 2.63886 34.2453 2.87889 34.0653L13.0041 26.6401C13.3049 26.4198 13.3701 25.9974 13.1498 25.6967C13.1294 25.6689 13.1069 25.6426 13.0825 25.6182L13.0771 25.6222Z" fill="#CFD8DC"/>
<path d="M21.8523 20.8945L15.1022 14.1444C13.9666 13.2602 12.5517 12.8124 11.1141 12.8821C9.23237 12.8162 7.40413 13.5151 6.04614 14.8193C4.94989 15.9156 5.0633 17.6099 6.38363 19.8563C7.63055 21.8115 9.10321 23.6131 10.7712 25.224C13.4564 27.9079 16.8464 30.6971 19.3169 30.6971C20.0132 30.7147 20.6859 30.4441 21.1759 29.9491C23.9867 27.1397 23.286 22.3296 21.8523 20.8945Z" fill="#D32F2F"/>
<path d="M27.2536 15.4966L20.5034 8.74646C20.2398 8.48295 19.8125 8.48295 19.5489 8.74646L14.1488 14.1466C13.2659 15.0295 13.3388 16.9816 16.1738 19.8261C18.0247 21.677 19.5003 22.3507 20.5479 22.3507C21.0328 22.3678 21.5038 22.1876 21.8534 21.8512L27.2535 16.4511C27.5171 16.1875 27.5171 15.7602 27.2536 15.4966Z" fill="#F44336"/>
<path d="M34.1492 13.6925C34.0448 13.44 33.7986 13.2754 33.5254 13.2753C32.062 13.2753 28.8489 11.693 26.5782 9.42232C24.3075 7.15161 22.7252 3.93981 22.7252 2.47507C22.7259 2.10227 22.4242 1.79953 22.0514 1.79883C21.8717 1.79851 21.6992 1.8699 21.5723 1.99716C18.8155 4.75528 17.9542 9.45877 22.2473 13.7519C23.8806 15.5669 26.1795 16.6428 28.6194 16.7341C30.6489 16.7108 32.5857 15.8806 34.002 14.4269C34.1949 14.2343 34.2529 13.9446 34.1492 13.6925Z" fill="#D32F2F"/>
<path d="M29.9531 6.04605C27.0937 3.18801 24.5084 1.79883 22.05 1.79883C21.6772 1.79883 21.375 2.10107 21.375 2.47387C21.375 4.48949 23.2813 8.03465 25.6222 10.3769C27.9632 12.7192 31.5111 14.6242 33.5253 14.6242C33.8981 14.6242 34.2003 14.3219 34.2003 13.9491C34.2003 11.4894 32.8112 8.90403 29.9531 6.04605Z" fill="#F44336"/>
</svg>
