<svg width="110" height="110" viewBox="0 0 110 110" fill="none" xmlns="http://www.w3.org/2000/svg">
<path d="M55.1954 93.7432C50.1064 93.7432 45.2785 92.8255 40.8419 90.8589C36.4054 88.8923 32.4909 86.1391 29.2287 82.7303C25.9666 79.1904 23.3569 75.1262 21.5301 70.4063C19.7033 65.6865 18.7899 60.5734 18.7899 55.0669C18.7899 50.4782 19.4423 46.2828 20.6167 42.3496H1.30486C0.391457 46.4139 0 50.6093 0 55.0669C0 62.9333 1.30486 70.2752 4.04506 76.9616C6.78525 83.6481 10.5693 89.4167 15.5278 94.3988C20.4862 99.3808 26.3581 103.183 33.0128 105.936C39.6676 108.689 47.1053 110 54.9344 110C55.9783 110 57.0222 110 58.0661 109.869V93.6121C57.2831 93.7432 56.2392 93.7432 55.1954 93.7432Z" fill="#0D0D13"/>
<path d="M69.5491 19.1415C73.9856 21.1081 77.7697 23.8613 81.0319 27.2701C84.294 30.81 86.7732 34.8742 88.6 39.5941C90.4268 44.3139 91.3402 49.427 91.3402 54.9335C91.3402 60.44 90.4268 65.5531 88.6 70.2729C88.2086 71.4529 87.6866 72.6328 87.0342 73.6817H107.129C109.086 67.913 110 61.6199 110 54.9335C110 46.936 108.695 39.7252 105.955 33.0388C103.214 26.3523 99.4303 20.5837 94.4719 15.6016C89.5134 10.6196 83.6416 6.81752 76.9868 4.06429C71.115 1.70438 64.8517 0.393319 58.0664 0V16.2572C62.2419 16.6505 66.026 17.5682 69.5491 19.1415Z" fill="#0D0D13"/>
<path d="M64.5875 55.3261C64.5875 60.7015 60.2815 65.1591 54.8011 65.1591C49.4512 65.1591 45.0146 60.8326 45.0146 55.3261C45.0146 49.9508 49.3207 45.4932 54.8011 45.4932C60.151 45.6243 64.5875 49.9508 64.5875 55.3261Z" fill="#516AF2"/>
</svg>
