<svg width="88" height="88" viewBox="0 0 88 88" fill="none" xmlns="http://www.w3.org/2000/svg">
<rect width="88" height="88" rx="44" fill="black"/>
<g clip-path="url(#clip0_1360_272)">
<path d="M44.1406 31.0625L57.0512 53.5548H31.3438L44.1406 31.0625Z" fill="white"/>
<path d="M54.9158 49.834C53.9997 50.593 52.9847 51.233 51.9022 51.7529C49.5246 52.894 46.8195 53.4588 44.1154 53.4494C41.4124 53.44 38.7126 52.8575 36.3433 51.7007C35.3072 51.1954 34.3353 50.5773 33.454 49.8517L32.8906 50.8425C33.8478 51.6495 34.9092 52.3334 36.0443 52.8877C36.555 53.1373 37.0804 53.3586 37.6175 53.557H50.7439C51.2388 53.3743 51.7242 53.1696 52.197 52.9431C53.3827 52.3741 54.4894 51.6662 55.4834 50.8216L54.9169 49.8361L54.9158 49.834Z" fill="black"/>
<path d="M37.6406 42.4886C37.8417 42.4542 38.0376 42.5106 38.1913 42.6525C38.3619 42.8091 38.4325 43.0253 38.3872 43.2508C38.3156 43.6099 38.2777 43.9837 38.2766 44.3679C38.2714 45.9746 38.9232 47.431 39.9814 48.4886C41.0396 49.5452 42.5054 50.2018 44.127 50.2071C45.7475 50.2123 47.2175 49.566 48.2831 48.5168C49.3487 47.4676 50.011 46.0143 50.0163 44.4065C50.0174 44.0275 49.9826 43.6579 49.9142 43.2998C49.871 43.0733 49.9436 42.8572 50.1163 42.7016C50.289 42.5461 50.5123 42.4949 50.7355 42.5586H50.7397L48.361 38.4159C46.9816 38.061 45.5748 37.8803 44.167 37.8751C42.7613 37.8699 41.3545 38.0411 39.9751 38.3867L37.6406 42.4886ZM48.8096 44.2843C48.8106 43.92 48.7696 43.564 48.6895 43.2236C48.659 43.091 48.7411 42.9584 48.8738 42.9261C49.0075 42.8937 49.1434 42.9741 49.1771 43.1056C49.1792 43.115 49.1823 43.1244 49.1844 43.1338C49.2866 43.541 49.3403 43.967 49.3392 44.4034C49.334 45.8243 48.7485 47.1095 47.805 48.0386C46.8616 48.9678 45.5611 49.5399 44.1259 49.5347C42.6928 49.5295 41.3966 48.949 40.4595 48.0136C39.5223 47.0781 38.9453 45.7888 38.9505 44.3668C38.9516 43.9346 39.0084 43.5107 39.1137 43.1036C39.1327 43.0294 39.1538 42.9564 39.1759 42.8843C39.2159 42.7549 39.3538 42.6797 39.4854 42.7173C39.6171 42.7549 39.695 42.8916 39.6571 43.0232C39.5476 43.4136 39.4876 43.826 39.4865 44.252C39.4781 46.8046 41.5577 48.8801 44.1312 48.8885C46.7057 48.8968 48.7991 46.8349 48.8075 44.2833L48.8096 44.2843Z" fill="black"/>
<path d="M72.9651 58.9248L47.6641 14.4204C47.6641 14.4204 47.663 14.4183 47.662 14.4183C47.662 14.4173 47.6609 14.4152 47.6599 14.4142C47.6525 14.4016 47.643 14.3891 47.6346 14.3776C47.6293 14.3703 47.6241 14.362 47.6188 14.3547C47.6093 14.3421 47.5988 14.3306 47.5883 14.3192C47.5819 14.3119 47.5756 14.3045 47.5693 14.2972C47.5588 14.2857 47.5461 14.2764 47.5346 14.267C47.5272 14.2607 47.5209 14.2544 47.5124 14.2482C47.4988 14.2377 47.4851 14.2294 47.4703 14.22C47.463 14.2158 47.4566 14.2106 47.4503 14.2064C47.4282 14.1939 47.4061 14.1824 47.3829 14.173C47.3808 14.173 47.3787 14.172 47.3756 14.1709C47.3545 14.1626 47.3334 14.1552 47.3113 14.149C47.3039 14.1469 47.2955 14.1459 47.2882 14.1438C47.2713 14.1396 47.2545 14.1354 47.2376 14.1333C47.2281 14.1323 47.2187 14.1323 47.2092 14.1312C47.1934 14.1302 47.1786 14.1281 47.1628 14.1281L41.482 14.0801H41.4768C41.2672 14.0801 41.0745 14.1918 40.9713 14.3734L15.9136 58.6388C15.9051 58.6534 15.8988 58.6691 15.8914 58.6847C15.8893 58.6879 15.8883 58.692 15.8862 58.6952C15.8778 58.714 15.8714 58.7327 15.8651 58.7526C15.8641 58.7568 15.862 58.7609 15.8609 58.7662C15.8556 58.7849 15.8514 58.8037 15.8483 58.8225C15.8483 58.8278 15.8462 58.833 15.8451 58.8392C15.843 58.857 15.8409 58.8758 15.8409 58.8935C15.8409 58.8998 15.8409 58.9061 15.8398 58.9134C15.8398 58.9311 15.8398 58.9478 15.8419 58.9656C15.8419 58.9729 15.8419 58.9802 15.8441 58.9875C15.8462 59.0042 15.8493 59.0198 15.8525 59.0366C15.8546 59.0449 15.8556 59.0533 15.8577 59.0606C15.862 59.0762 15.8662 59.0908 15.8714 59.1055C15.8746 59.1138 15.8767 59.1232 15.8809 59.1316C15.8862 59.1462 15.8935 59.1598 15.8999 59.1733C15.903 59.1796 15.9051 59.1869 15.9093 59.1932L18.6387 64.2598C18.7398 64.4467 18.9356 64.5636 19.1494 64.5636H69.3449C69.4144 64.5636 69.4808 64.55 69.5439 64.5271C69.5492 64.525 69.5534 64.5239 69.5587 64.5218C69.5734 64.5156 69.5882 64.5083 69.6029 64.5009C69.6103 64.4978 69.6177 64.4936 69.625 64.4905C69.6377 64.4832 69.6492 64.4759 69.6619 64.4675C69.6703 64.4623 69.6787 64.4571 69.6872 64.4508C69.6977 64.4435 69.7072 64.4352 69.7166 64.4268C69.7261 64.4195 69.7345 64.4122 69.744 64.4039C69.7524 64.3955 69.7598 64.3871 69.7682 64.3788C69.7777 64.3694 69.7861 64.36 69.7946 64.3496C69.8009 64.3412 69.8072 64.3329 69.8135 64.3235C69.8198 64.3151 69.8261 64.3078 69.8314 64.2994L72.9472 59.5178C73.0641 59.3383 73.0704 59.1096 72.9651 58.9238V58.9248ZM41.8158 15.2316L46.1762 15.2682L24.3995 53.8488C24.3637 53.9115 24.3416 53.9804 24.3321 54.0493C24.3142 54.1756 24.3384 54.3061 24.4048 54.4199C24.4827 54.5515 24.6091 54.6454 24.7544 54.684C24.8028 54.6966 24.8534 54.7039 24.905 54.7039H57.7116L59.1036 57.1291L59.8018 58.3454H17.4077L41.8158 15.2316ZM44.1418 31.0631L57.0514 53.5555H31.345L44.1418 31.0631ZM19.4958 63.4152L17.3846 59.4949H60.7979C61.0043 59.4949 61.1959 59.3853 61.2991 59.2078C61.3633 59.0971 61.3876 58.9718 61.3718 58.8497C61.3686 58.8288 61.3644 58.8069 61.3591 58.787C61.3591 58.7839 61.3581 58.7797 61.357 58.7766C61.3528 58.7588 61.3454 58.7411 61.3391 58.7244C61.337 58.7181 61.3349 58.7119 61.3328 58.7056C61.3265 58.691 61.3191 58.6764 61.3117 58.6618C61.3075 58.6544 61.3044 58.6461 61.3002 58.6377V58.6357H61.2981L61.2749 58.5949C61.2749 58.5949 61.2717 58.5887 61.2696 58.5855L60.3978 57.0665L58.5508 53.8478C58.5508 53.8478 58.5466 53.8426 58.5456 53.8394L44.8042 29.899L47.146 25.7846L68.3562 63.4162H19.4958V63.4152ZM69.3807 62.8754L47.6746 24.2948C47.5725 24.1131 47.3787 24.0003 47.1692 24.0003C46.9596 24.0003 46.7669 24.1131 46.6637 24.2937L44.2145 28.5992L43.6354 29.6161C43.6354 29.6161 43.6354 29.6182 43.6343 29.6192L30.0151 53.5555H25.8926L47.1618 15.8747L71.7847 59.1869L69.3807 62.8754Z" fill="black"/>
<path d="M43.4288 43.6885C43.6604 43.6301 43.81 43.4651 43.8742 43.1989C43.9626 42.8314 43.7489 42.5349 43.2203 42.2958L43.4014 41.7728L43.0139 41.6402L42.8317 42.1632L42.6285 42.0922L42.8096 41.5713L42.4105 41.4355L42.2305 41.9555L41.5555 41.7237L41.4071 42.1497L41.6914 42.2467C41.7609 42.2708 41.7924 42.3104 41.8072 42.3397C41.824 42.3741 41.823 42.4054 41.8177 42.4211L41.2786 43.9798C41.266 44.0174 41.2333 44.056 41.1522 44.0289L40.8732 43.9328L40.6289 44.3807L41.1185 44.5478C41.167 44.5645 41.208 44.5791 41.2491 44.5937C41.2691 44.601 41.2891 44.6083 41.3112 44.6156L41.1291 45.1429L41.5176 45.2754L41.7051 44.7514L41.9125 44.8223L41.7293 45.3475L42.1189 45.4801L42.301 44.9528C42.8117 45.0917 43.3624 45.1449 43.6246 44.5666C43.7921 44.197 43.7278 43.9099 43.4288 43.6896V43.6885ZM42.4337 42.4462L42.9265 42.6153C43.1382 42.6873 43.2508 42.917 43.1771 43.1269C43.1045 43.3367 42.8728 43.4484 42.6612 43.3753L42.1705 43.2072L42.4337 42.4462ZM42.4063 44.5332L41.7851 44.3202L42.0694 43.4985L42.6927 43.7126C42.9212 43.7909 43.0423 44.0383 42.9634 44.2648C42.8844 44.4914 42.6348 44.6115 42.4063 44.5332Z" fill="white"/>
<path d="M32.5814 27.2702L32.3287 26.8672C29.1908 28.8049 26.5783 31.4536 24.7019 34.5877L24.6145 34.5365C24.4776 34.7652 24.346 34.9959 24.2176 35.2287C24.0891 35.4615 23.9638 35.6975 23.8438 35.9345L24.4861 36.254C24.6029 36.0243 24.723 35.7956 24.8472 35.5701C24.9715 35.3446 25.1 35.1202 25.2326 34.8988L25.1136 34.8289C26.9511 31.7605 29.5098 29.1672 32.5814 27.2702Z" fill="white"/>
<path d="M30.3906 31.2642L30.9898 31.3623C31.2193 31.1577 31.4541 30.9614 31.6911 30.7672L32.2955 29.6992C31.6321 30.1816 30.9961 30.7036 30.3906 31.2642Z" fill="white"/>
<path d="M32.9322 24.3895L32.7101 23.9688C28.2054 26.3115 24.4915 29.9833 22.1065 34.4152L22.0076 34.363C21.8686 34.6219 21.7348 34.8829 21.6053 35.145C21.4758 35.4081 21.3505 35.6732 21.2305 35.9416L21.8865 36.2307C22.0034 35.9708 22.1244 35.7129 22.2508 35.4571C22.3761 35.2013 22.5067 34.9476 22.6415 34.696L22.5288 34.6365C24.8696 30.2882 28.5118 26.6853 32.9322 24.3874V24.3895Z" fill="white"/>
<path d="M33.375 26.2588L33.6067 26.6743C33.7972 26.5699 33.991 26.4697 34.1847 26.3705L34.5996 25.6387C34.1858 25.8339 33.7762 26.0396 33.3761 26.2599L33.375 26.2588Z" fill="white"/>
<path d="M64.0349 35.5691C64.1592 35.7946 64.2803 36.0232 64.3972 36.2529L64.5214 36.1903L64.6941 36.1047L65.0384 35.9334C64.9184 35.6965 64.7941 35.4605 64.6657 35.2277C64.5372 34.9949 64.4045 34.7641 64.2676 34.5355L64.1802 34.5867C62.3038 31.4536 59.6914 28.8038 56.5535 26.8672L56.3008 27.2702C59.3734 29.1672 61.9311 31.7615 63.7696 34.8289L63.6506 34.8988C63.7833 35.1202 63.9117 35.3436 64.036 35.5691H64.0349Z" fill="white"/>
<path d="M19.6172 45.9994H23.071L23.3395 45.5254H19.6172V45.9994Z" fill="white"/>
<path d="M50.9987 20.2803C59.7995 22.4758 66.8903 28.9853 69.8386 37.4001H63.0374C62.094 35.4415 60.8451 33.6562 59.3267 32.0819V32.774C60.6882 34.2566 61.8118 35.9228 62.6699 37.7373L62.7342 37.8741H70.0008C70.2693 38.6905 70.4999 39.5247 70.6884 40.3735H69.6933V40.505H62.4973L62.7668 40.98H69.6923V41.0865H70.8358C70.8979 41.4091 70.9569 41.7317 71.0074 42.0585H63.3796L63.6492 42.5335H71.0748C71.1317 42.9501 71.178 43.3698 71.2159 43.7926H64.3652L64.6348 44.2676H71.2528C71.2823 44.6852 71.3023 45.1039 71.3118 45.5267H65.3498L65.6193 46.0018H71.317C71.317 46.0435 71.3191 46.0853 71.3191 46.126C71.3191 46.4048 71.3128 46.6825 71.3044 46.9591H69.6923V47.0781H66.2322L66.5017 47.5532H69.6923V47.6711H71.2728C71.2538 47.9927 71.2296 48.3132 71.1991 48.6316H69.0478V48.5126H67.0472L67.4515 49.2246H69.0478V49.1067H71.1496C71.1085 49.4679 71.0622 49.8281 71.0074 50.1841H67.997L68.2665 50.6591H70.9274C70.7326 51.7804 70.4662 52.8766 70.1345 53.9457L70.9137 55.3154C71.9404 52.4005 72.4763 49.305 72.4763 46.126C72.4763 38.7009 69.5606 31.7206 64.2652 26.4713C60.3608 22.6001 55.5055 20.013 50.2227 18.9199L50.9976 20.2824L50.9987 20.2803Z" fill="white"/>
<path d="M23.183 38.8145H20.8906V39.5265H23.183V38.8145Z" fill="white"/>
<path d="M31.9887 65.3027L32.2488 64.9039C32.0751 64.7922 31.9034 64.6784 31.7339 64.5625H30.9062C31.259 64.8183 31.6202 65.0657 31.9898 65.3027H31.9887Z" fill="white"/>
<path d="M19.3906 40.9809H25.9117L26.1802 40.5059H19.3906V40.9809Z" fill="white"/>
<path d="M69.1239 52.1659C69.1344 52.121 69.146 52.0771 69.1576 52.0322L69.0312 52.002L69.1239 52.1648V52.1659Z" fill="white"/>
<path d="M33.9951 23.8693C34.6754 23.5561 35.3714 23.2753 36.0779 23.0247L36.4307 22.4004C35.5325 22.6979 34.6511 23.0435 33.793 23.4392L33.9951 23.8693Z" fill="white"/>
<path d="M67.9955 38.8145H65.7031V39.5265H67.9955V38.8145Z" fill="white"/>
<path d="M61.654 64.5625H60.9443C60.5737 64.8903 60.1925 65.2088 59.8008 65.5146L60.0977 65.8874C60.6358 65.4666 61.1549 65.024 61.6551 64.5625H61.654Z" fill="white"/>
<path d="M67.2752 35.1459C67.1457 34.8828 67.0119 34.6218 66.873 34.3639L66.774 34.4161C66.6097 34.1102 66.4402 33.8054 66.2643 33.5078L65.8516 33.7479C66.0243 34.0403 66.1906 34.3389 66.3517 34.6385L66.2401 34.6969C66.3749 34.9486 66.5055 35.2023 66.6308 35.458C66.7561 35.7138 66.8782 35.9717 66.9951 36.2317L67.1141 36.1795V36.1815L67.5521 35.9884V35.9863L67.6501 35.9425C67.53 35.6752 67.4047 35.41 67.2752 35.1459Z" fill="white"/>
<path d="M18.686 53.7452C18.3827 52.7398 18.1384 51.7094 17.9552 50.6581H20.4339L20.7024 50.183H17.8752C17.8204 49.826 17.7741 49.4668 17.733 49.1046H19.8348V49.2225H21.2447L21.648 48.5105H19.8348V48.6295H17.6846C17.654 48.3111 17.6298 47.9906 17.6109 47.6691H19.1914V47.55H22.1913L22.4598 47.075H19.1914V46.956H17.5782C17.5698 46.6793 17.5635 46.4016 17.5635 46.1229C17.5635 46.0811 17.5645 46.0393 17.5656 45.9976H18.4206V45.5225H17.5719C17.5814 45.1008 17.6014 44.6811 17.6309 44.2635H24.0519L24.3204 43.7884H17.6688C17.7056 43.3656 17.753 42.9459 17.8099 42.5293H20.3949V42.0543H17.8773C17.9278 41.7286 17.9857 41.4049 18.0489 41.0823H19.1924V40.3703H18.1974C18.388 39.5121 18.6207 38.6707 18.8934 37.8459H26.1621L26.2263 37.7091C27.0951 35.8779 28.2344 34.1991 29.6159 32.7072V32.0192C28.0775 33.5999 26.8129 35.3966 25.8589 37.3709H19.0545C21.9744 29.0688 28.9336 22.623 37.587 20.3586L38.3672 18.9805C33.1981 20.107 28.4502 22.67 24.6174 26.4703C19.322 31.7196 16.4062 38.6999 16.4062 46.1249C16.4062 49.2351 16.9201 52.2669 17.9036 55.1265L18.686 53.7452Z" fill="white"/>
<path d="M63.8235 64.5625C59.8379 68.6791 54.5362 71.5345 48.5953 72.4521V72.0857L50.0421 70.6512C53.3253 69.9162 56.3831 68.5548 59.1335 66.6067L58.8555 66.2204C56.1388 68.1456 53.1157 69.4851 49.8704 70.2033L49.803 70.2179L48.1183 71.8884V72.52C47.7582 72.5691 47.3959 72.6119 47.0316 72.6463V70.0196L48.4731 68.5903C51.0793 68.133 53.5643 67.2362 55.8619 65.927L55.6229 65.5157C53.3516 66.8103 50.8939 67.6914 48.3162 68.1362L48.2415 68.1487L46.5525 69.8233V72.6891C46.1924 72.7173 45.8291 72.7361 45.4648 72.7497V67.8919L46.9021 66.4668C48.6427 66.2611 50.3506 65.8362 51.9774 65.2014L51.8016 64.7598C50.1874 65.3894 48.4921 65.808 46.7631 66.0053L46.6799 66.0147L44.9846 67.6956V72.7643C44.8035 72.7674 44.6224 72.7716 44.4413 72.7716C44.2602 72.7716 44.079 72.7685 43.8979 72.7643V67.6956L42.2026 66.0147L42.1194 66.0053C40.3915 65.8091 38.6962 65.3894 37.082 64.7598L36.9072 65.2014C38.5351 65.8362 40.242 66.2622 41.9826 66.4668L43.4188 67.8919V72.7497C43.0545 72.7361 42.6923 72.7173 42.3321 72.6891V69.8233L40.6421 68.1487L40.5674 68.1362C37.9907 67.6914 35.532 66.8103 33.2607 65.5157L33.0227 65.927C35.3203 67.2362 37.8054 68.132 40.4105 68.5903L41.853 70.0206V72.6474C41.4887 72.6129 41.1265 72.5701 40.7653 72.5211V71.8894L39.0805 70.219L39.0121 70.2044C38.4972 70.0906 37.9791 69.958 37.4726 69.8118L37.3389 70.267C37.8328 70.41 38.3371 70.5395 38.8405 70.6523L40.2873 72.0867V72.4532C34.3463 71.5355 29.0446 68.6801 25.0591 64.5635H23.4648C23.8365 64.978 24.2198 65.3841 24.6179 65.7788C29.9133 71.0292 36.9535 73.92 44.4413 73.92C51.929 73.92 58.9703 71.0292 64.2647 65.7788C64.6638 65.3831 65.047 64.977 65.4177 64.5635H63.8235V64.5625Z" fill="white"/>
<path d="M54.3635 26.2015C54.672 26.3518 54.9774 26.5095 55.2775 26.6744L55.5091 26.2589C55.0026 25.9822 54.4835 25.7244 53.957 25.4863L54.3635 26.2015Z" fill="white"/>
<path d="M65.6255 32.4888C62.5192 27.7772 57.8577 24.1983 52.4991 22.4141L52.3906 22.7356L52.4928 22.9141C57.6892 24.6817 62.2065 28.1687 65.2265 32.7488L65.6266 32.4888H65.6255Z" fill="white"/>
<path d="M57.9775 64.5625H57.1488C56.9782 64.6784 56.8076 64.7932 56.6328 64.9049L56.8929 65.3038C57.2625 65.0668 57.6237 64.8193 57.9764 64.5635L57.9775 64.5625Z" fill="white"/>
<path d="M56.7681 30.4313C57.0682 30.662 57.3631 30.9001 57.6505 31.1485H58.3634C57.6779 30.5242 56.9535 29.949 56.1953 29.4238L56.7681 30.4313Z" fill="white"/>
<path d="M36.3401 69.4537C33.237 68.392 30.3792 66.7163 27.9384 64.5625H27.2266C29.7979 66.9293 32.8526 68.7636 36.1832 69.9027L36.3391 69.4537H36.3401Z" fill="white"/>
<path d="M25.3045 42.0586H21.5938V42.5336H25.0359L25.3045 42.0586Z" fill="white"/>
<path d="M39.9766 38.3884C41.357 38.0428 42.7638 37.8695 44.1706 37.8747C45.5795 37.8799 46.9863 38.0616 48.3667 38.4176L44.1453 31.0625L39.9776 38.3884H39.9766Z" fill="#C43D3D"/>
<path d="M32.8874 50.8411L33.1138 50.4434L31.3438 53.5556H37.6142C37.0772 53.3572 36.5518 53.1359 36.0411 52.8864C34.906 52.332 33.8446 51.6492 32.8874 50.8411Z" fill="#C43D3D"/>
<path d="M55.4817 50.8194C54.4887 51.664 53.382 52.3729 52.1953 52.9408C51.7225 53.1674 51.2371 53.372 50.7422 53.5547H57.0516L55.4806 50.8184L55.4817 50.8194Z" fill="#C43D3D"/>
<path d="M41.8143 15.2324L46.1747 15.269L24.398 53.8496C24.3622 53.9123 24.3401 53.9812 24.3306 54.0501C24.3127 54.1764 24.337 54.3069 24.4033 54.4207C24.4812 54.5522 24.6076 54.6462 24.7529 54.6848C24.8013 54.6974 24.8519 54.7047 24.9035 54.7047H57.7101L59.1022 57.1299L59.8003 58.3462H17.4062L41.8143 15.2324Z" fill="white"/>
<path d="M19.494 63.4158L17.3828 59.4955H60.7961C61.0025 59.4955 61.1942 59.3858 61.2974 59.2084C61.3616 59.0977 61.3858 58.9724 61.37 58.8503C61.3669 58.8294 61.3626 58.8075 61.3574 58.7876C61.3574 58.7845 61.3563 58.7803 61.3553 58.7772C61.3511 58.7594 61.3437 58.7417 61.3374 58.725C61.3353 58.7187 61.3332 58.7125 61.3311 58.7062C61.3247 58.6916 61.3174 58.677 61.31 58.6623C61.3058 58.655 61.3026 58.6467 61.2984 58.6383V58.6362H61.2963L61.2731 58.5955C61.2731 58.5955 61.27 58.5893 61.2679 58.5861L60.396 57.0671L58.5491 53.8484C58.5491 53.8484 58.5449 53.8431 58.5438 53.84L44.8024 29.8996L47.1442 25.7852L68.3544 63.4168H19.494V63.4158Z" fill="white"/>
<path d="M69.3787 62.8746L47.6726 24.295C47.5704 24.1133 47.3767 24.0006 47.1671 24.0006C46.9576 24.0006 46.7649 24.1133 46.6617 24.294L44.2125 28.5995L43.6333 29.6164C43.6333 29.6164 43.6333 29.6185 43.6323 29.6195L30.013 53.5557H25.8906L47.1598 15.875L71.7827 59.1871L69.3787 62.8757V62.8746Z" fill="white"/>
</g>
<defs>
<clipPath id="clip0_1360_272">
<rect width="57.2" height="59.84" fill="white" transform="translate(15.8398 14.0801)"/>
</clipPath>
</defs>
</svg>
