<svg width="88" height="88" viewBox="0 0 88 88" fill="none" xmlns="http://www.w3.org/2000/svg">
<rect width="88" height="88" rx="44" fill="#0D0D13"/>
<path d="M44.0946 62.6155C41.6392 62.6155 39.3097 62.1748 37.1691 61.2304C35.0285 60.286 33.1397 58.9639 31.5657 57.3269C29.9917 55.627 28.7326 53.6753 27.8511 51.4088C26.9697 49.1423 26.529 46.6869 26.529 44.0426C26.529 41.839 26.8438 39.8243 27.4104 37.9355H18.0925C17.6518 39.8873 17.4629 41.902 17.4629 44.0426C17.4629 47.8201 18.0925 51.3458 19.4146 54.5567C20.7368 57.7677 22.5626 60.5379 24.955 62.9303C27.3475 65.3227 30.1806 67.1486 33.3915 68.4707C36.6024 69.7928 40.1911 70.4224 43.9687 70.4224C44.4723 70.4224 44.976 70.4224 45.4797 70.3595V62.5525C45.1019 62.6155 44.5982 62.6155 44.0946 62.6155Z" fill="white"/>
<path d="M51.0209 26.7916C53.1615 27.736 54.9873 29.0582 56.5613 30.6951C58.1352 32.395 59.3315 34.3467 60.2129 36.6132C61.0943 38.8798 61.535 41.3352 61.535 43.9795C61.535 46.6237 61.0943 49.0791 60.2129 51.3457C60.024 51.9123 59.7722 52.4789 59.4574 52.9826H69.1531C70.0975 50.2124 70.5382 47.1904 70.5382 43.9795C70.5382 40.139 69.9086 36.6762 68.5864 33.4653C67.2643 30.2544 65.4385 27.4842 63.046 25.0917C60.6536 22.6993 57.8204 20.8735 54.6095 19.5513C51.7764 18.4181 48.7543 17.7885 45.4805 17.5996V25.4065C47.4952 25.5954 49.321 26.0361 51.0209 26.7916Z" fill="white"/>
<path d="M48.6275 44.1692C48.6275 46.7505 46.5498 48.8911 43.9055 48.8911C41.3242 48.8911 39.1836 46.8135 39.1836 44.1692C39.1836 41.5879 41.2612 39.4473 43.9055 39.4473C46.4868 39.5102 48.6275 41.5879 48.6275 44.1692Z" fill="#516AF2"/>
</svg>
