<svg width="108" height="108" viewBox="0 0 108 108" fill="none" xmlns="http://www.w3.org/2000/svg">
<path d="M74.7008 33.2998H33.3008V74.6998H74.7008V33.2998Z" fill="#516AF5"/>
<path d="M100.575 59.175C103.68 59.175 105.75 57.105 105.75 54C105.75 51.4125 103.68 48.825 100.575 48.825H95.4V38.475H100.575C103.68 38.475 105.75 36.405 105.75 33.3C105.75 30.7125 103.68 28.125 100.575 28.125H95.4V22.95C95.4 17.2575 90.7425 12.6 85.05 12.6H79.875V7.425C79.875 4.8375 77.805 2.25 74.7 2.25C72.1125 2.25 69.525 4.32 69.525 7.425V12.6H59.175V7.425C59.175 4.8375 57.105 2.25 54 2.25C50.895 2.25 48.825 4.32 48.825 7.425V12.6H38.475V7.425C38.475 4.8375 36.405 2.25 33.3 2.25C30.195 2.25 28.125 4.32 28.125 7.425V12.6H22.95C17.2575 12.6 12.6 17.2575 12.6 22.95V28.125H7.425C4.32 28.125 2.25 30.195 2.25 33.3C2.25 35.8875 4.32 38.475 7.425 38.475H12.6V48.825H7.425C4.32 48.825 2.25 50.895 2.25 54C2.25 56.5875 4.32 59.175 7.425 59.175H12.6V69.525H7.425C4.32 69.525 2.25 71.595 2.25 74.7C2.25 77.2875 4.32 79.875 7.425 79.875H12.6V85.05C12.6 90.7425 17.2575 95.4 22.95 95.4H28.125V100.575C28.125 103.163 30.195 105.75 33.3 105.75C36.405 105.75 38.475 103.68 38.475 100.575V95.4H48.825V100.575C48.825 103.163 50.895 105.75 54 105.75C57.105 105.75 59.175 103.68 59.175 100.575V95.4H69.525V100.575C69.525 103.163 71.595 105.75 74.7 105.75C77.2875 105.75 79.875 103.68 79.875 100.575V95.4H85.05C90.7425 95.4 95.4 90.7425 95.4 85.05V79.875H100.575C103.68 79.875 105.75 77.805 105.75 74.7C105.75 72.1125 103.68 69.525 100.575 69.525H95.4V59.175H100.575ZM85.05 85.05H22.95V22.95H85.05V85.05Z" fill="#516AF5"/>
</svg>
