<svg width="25" height="20" viewBox="0 0 25 20" fill="none" xmlns="http://www.w3.org/2000/svg">
<path d="M24.3766 1.66811C24.2365 2.29115 24.0921 2.91358 23.9571 3.53786C22.9288 8.28396 21.902 13.0299 20.8766 17.7756C20.8013 18.1224 20.7372 18.4723 20.6449 18.8154C20.3415 19.9451 19.5056 20.2312 18.546 19.5388C16.9019 18.3542 15.2592 17.1678 13.618 15.9795C13.1375 15.6327 13.1381 15.6321 12.7155 16.0303C11.9166 16.783 11.1182 17.5357 10.3202 18.2884C10.1958 18.4146 10.0463 18.5141 9.88104 18.5808C9.71583 18.6475 9.53846 18.6799 9.35998 18.6761C9.38259 18.3429 9.40268 18.0159 9.42655 17.6895C9.5308 16.2409 9.63254 14.7923 9.74747 13.3449C9.76454 13.2201 9.82517 13.1052 9.91892 13.0197C13.237 10.0722 16.5579 7.1283 19.8818 4.18815C19.9113 4.16214 19.9503 4.14232 19.9685 4.11073C20.0313 3.9974 20.0897 3.87973 20.15 3.76329C20.0068 3.73542 19.8573 3.66854 19.7223 3.69021C19.5672 3.71499 19.4158 3.80355 19.2783 3.8884C15.1556 6.42887 11.0349 8.97245 6.91635 11.5191C6.83359 11.5782 6.73734 11.6162 6.63612 11.6298C6.5349 11.6434 6.43183 11.6322 6.33606 11.5972C4.62973 11.0621 2.91649 10.5443 1.20953 10.0129C0.9788 9.94163 0.760765 9.83527 0.563297 9.69768C0.23861 9.46729 0.202185 9.13657 0.494843 8.8684C0.726482 8.65101 0.996327 8.47703 1.29117 8.35498C2.89765 7.72698 4.51417 7.12438 6.12693 6.51496C11.6493 4.43031 17.1717 2.34689 22.6941 0.264718C22.8533 0.201612 23.0204 0.159948 23.1909 0.140853C23.7982 0.0832552 24.1762 0.355759 24.3301 0.936687C24.342 0.980659 24.3609 1.02277 24.3766 1.06613V1.66811Z" fill="black"/>
</svg>
