<svg width="48" height="48" viewBox="0 0 48 48" fill="none" xmlns="http://www.w3.org/2000/svg">
<path d="M41.9259 4H6.07407C4.99356 4 3.95731 4.42143 3.19327 5.17157C2.42923 5.92172 2 6.93913 2 8V13.6H26.4444L31.9852 8.16C32.8004 7.36688 33.8738 6.88062 35.0174 6.78638C36.1611 6.69213 37.302 6.99591 38.2405 7.64451C39.1789 8.29311 39.8551 9.24519 40.1505 10.334C40.4459 11.4228 40.3418 12.579 39.8563 13.6H46V8C46 6.93913 45.5708 5.92172 44.8067 5.17157C44.0427 4.42143 43.0064 4 41.9259 4ZM10.963 10.4C10.6407 10.4 10.3256 10.3062 10.0576 10.1304C9.7896 9.95454 9.58072 9.70466 9.45738 9.41229C9.33404 9.11993 9.30177 8.79823 9.36465 8.48786C9.42753 8.17749 9.58273 7.89239 9.81064 7.66863C10.0385 7.44487 10.3289 7.29248 10.645 7.23074C10.9612 7.16901 11.2888 7.20069 11.5866 7.32179C11.8844 7.44289 12.1389 7.64797 12.318 7.91109C12.497 8.17421 12.5926 8.48355 12.5926 8.8C12.5926 9.22435 12.4209 9.63131 12.1153 9.93137C11.8097 10.2314 11.3952 10.4 10.963 10.4ZM17.4815 10.4C17.1592 10.4 16.8441 10.3062 16.5761 10.1304C16.3081 9.95454 16.0992 9.70466 15.9759 9.41229C15.8526 9.11993 15.8203 8.79823 15.8832 8.48786C15.946 8.17749 16.1013 7.89239 16.3292 7.66863C16.5571 7.44487 16.8474 7.29248 17.1636 7.23074C17.4797 7.16901 17.8073 7.20069 18.1051 7.32179C18.4029 7.44289 18.6574 7.64797 18.8365 7.91109C19.0155 8.17421 19.1111 8.48355 19.1111 8.8C19.1111 9.22435 18.9394 9.63131 18.6338 9.93137C18.3282 10.2314 17.9137 10.4 17.4815 10.4ZM38.6667 15.2L28.7259 24.896C28.2679 25.3462 27.6466 25.5994 26.9985 25.6H23.5437C22.8954 25.6 22.2736 25.3471 21.8152 24.8971C21.3568 24.447 21.0993 23.8365 21.0993 23.2V19.808C21.0998 19.1717 21.3577 18.5617 21.8163 18.112L24.7822 15.2H2V40C2 41.0609 2.42923 42.0783 3.19327 42.8284C3.95731 43.5786 4.99356 44 6.07407 44H41.9259C43.0064 44 44.0427 43.5786 44.8067 42.8284C45.5708 42.0783 46 41.0609 46 40V15.2H38.6667ZM9.33333 23.2H15.8519C16.068 23.2 16.2752 23.2843 16.428 23.4343C16.5808 23.5843 16.6667 23.7878 16.6667 24C16.6667 24.2122 16.5808 24.4157 16.428 24.5657C16.2752 24.7157 16.068 24.8 15.8519 24.8H9.33333C9.11723 24.8 8.90998 24.7157 8.75717 24.5657C8.60436 24.4157 8.51852 24.2122 8.51852 24C8.51852 23.7878 8.60436 23.5843 8.75717 23.4343C8.90998 23.2843 9.11723 23.2 9.33333 23.2ZM9.33333 29.6H32.1481C32.3643 29.6 32.5715 29.6843 32.7243 29.8343C32.8771 29.9843 32.963 30.1878 32.963 30.4C32.963 30.6122 32.8771 30.8157 32.7243 30.9657C32.5715 31.1157 32.3643 31.2 32.1481 31.2H9.33333C9.11723 31.2 8.90998 31.1157 8.75717 30.9657C8.60436 30.8157 8.51852 30.6122 8.51852 30.4C8.51852 30.1878 8.60436 29.9843 8.75717 29.8343C8.90998 29.6843 9.11723 29.6 9.33333 29.6ZM38.6667 37.6H9.33333C9.11723 37.6 8.90998 37.5157 8.75717 37.3657C8.60436 37.2157 8.51852 37.0122 8.51852 36.8C8.51852 36.5878 8.60436 36.3843 8.75717 36.2343C8.90998 36.0843 9.11723 36 9.33333 36H38.6667C38.8828 36 39.09 36.0843 39.2428 36.2343C39.3956 36.3843 39.4815 36.5878 39.4815 36.8C39.4815 37.0122 39.3956 37.2157 39.2428 37.3657C39.09 37.5157 38.8828 37.6 38.6667 37.6ZM37.7052 9.296C38.0082 9.59319 38.2486 9.94612 38.4126 10.3346C38.5767 10.7231 38.6611 11.1395 38.6611 11.56C38.6611 11.9805 38.5767 12.3969 38.4126 12.7854C38.2486 13.1739 38.0082 13.5268 37.7052 13.824L27.5852 23.76C27.5093 23.8373 27.4181 23.8985 27.3172 23.9398C27.2163 23.9811 27.1078 24.0016 26.9985 24H23.5437C23.3276 24 23.1203 23.9157 22.9675 23.7657C22.8147 23.6157 22.7289 23.4122 22.7289 23.2V19.808C22.7276 19.7031 22.7487 19.5991 22.7908 19.5026C22.8329 19.4062 22.8951 19.3194 22.9733 19.248L33.1096 9.296C33.7203 8.7 34.5464 8.36546 35.4074 8.36546C36.2685 8.36546 37.0945 8.7 37.7052 9.296Z" fill="#516AF5"/>
</svg>
