<svg width="48" height="48" viewBox="0 0 48 48" fill="none" xmlns="http://www.w3.org/2000/svg">
<path d="M42.3825 14.7576H10.071C9.2415 14.7576 8.571 14.0856 8.571 13.2576C8.571 12.4296 9.2415 11.7576 10.071 11.7576H36.429V6.13256C36.429 5.33306 36.0705 4.58756 35.4465 4.08806C34.8195 3.58556 34.008 3.40406 33.234 3.57806L5.043 9.90806C3.8415 10.1781 3 11.2296 3 12.4626V41.8671C3 43.3101 4.1745 44.4861 5.6175 44.4861H42.3825C43.8255 44.4861 45 43.3116 45 41.8671V17.3751C45 15.9321 43.8255 14.7576 42.3825 14.7576ZM37.659 32.2956C36.2565 32.2956 35.1165 31.1541 35.1165 29.7516C35.1165 28.3491 36.258 27.2076 37.659 27.2076C39.063 27.2076 40.203 28.3491 40.203 29.7516C40.203 31.1541 39.063 32.2956 37.659 32.2956Z" fill="#FF5D29"/>
</svg>
