<svg width="26" height="21" viewBox="0 0 26 21" fill="none" xmlns="http://www.w3.org/2000/svg">
<path d="M0 18.5187C2.89923 18.7762 5.4604 18.0865 7.78943 16.3621C5.36463 16.146 3.74915 14.9389 2.84215 12.7027C3.6464 12.7916 4.39547 12.8148 5.20099 12.5931C3.93245 12.2868 2.92524 11.6741 2.1527 10.7139C1.38016 9.75362 0.99897 8.66057 1.00087 7.394C1.73916 7.75982 2.48315 8.00035 3.30707 8.02039C0.979942 6.07858 0.443987 3.77346 1.73409 1.0048C4.63332 4.37542 8.26069 6.22014 12.6682 6.5133C12.6485 5.99151 12.6048 5.49541 12.6175 5.00056C12.6809 2.84264 14.3528 0.793083 16.4732 0.261903C18.4356 -0.230442 20.1559 0.209494 21.6342 1.58171C21.6778 1.62979 21.7344 1.66446 21.7974 1.68157C21.8604 1.69868 21.9271 1.6975 21.9894 1.67817C23.1018 1.43282 24.1688 1.01844 25.1525 0.44982C24.7364 1.69383 23.9905 2.5902 22.9662 3.29427C23.9601 3.20845 24.8962 2.91843 25.8667 2.5332C25.188 3.51851 24.432 4.34285 23.5148 5.01371C23.2827 5.18284 23.2224 5.36073 23.2281 5.6401C23.2789 8.04858 22.7391 10.3337 21.6818 12.4978C20.4132 15.0955 18.5688 17.1958 16.0755 18.7229C14.2995 19.8085 12.3676 20.4543 10.2999 20.7243C8.49878 20.9667 6.66881 20.8997 4.89083 20.5263C3.19762 20.167 1.58133 19.5172 0.115437 18.6064C0.0945058 18.592 0.076112 18.5757 0 18.5187Z" fill="black"/>
</svg>
