<svg width="150" height="150" viewBox="0 0 150 150" fill="none" xmlns="http://www.w3.org/2000/svg">
<circle cx="75" cy="75" r="75" fill="#EAEAEA"/>
<rect x="45" y="45" width="60" height="60" rx="30" fill="black"/>
<path d="M73.6957 85.4348H67.8261C65.8478 85.4348 64.1574 84.75 62.7548 83.3804C61.3522 82.0109 60.6513 80.337 60.6522 78.3587C60.6522 76.663 61.163 75.1522 62.1848 73.8261C63.2065 72.5 64.5435 71.6522 66.1957 71.2826C66.7391 69.2826 67.8261 67.663 69.4565 66.4239C71.087 65.1848 72.9348 64.5652 75 64.5652C77.5435 64.5652 79.7013 65.4513 81.4735 67.2235C83.2457 68.9957 84.1313 71.153 84.1304 73.6957C85.6304 73.8696 86.8752 74.5165 87.8648 75.6365C88.8543 76.7565 89.3487 78.0661 89.3478 79.5652C89.3478 81.1956 88.777 82.5817 87.6352 83.7235C86.4935 84.8652 85.1078 85.4356 83.4783 85.4348H76.3044V76.1087L78.3913 78.1304L80.2174 76.3043L75 71.087L69.7826 76.3043L71.6087 78.1304L73.6957 76.1087V85.4348Z" fill="white"/>
</svg>
