<svg width="48" height="48" viewBox="0 0 48 48" fill="none" xmlns="http://www.w3.org/2000/svg">
<g clip-path="url(#clip0_1332_306)">
<path d="M6.19062 25.5824V14.4219C3.24791 14.8512 0.980469 17.3908 0.980469 20.4507V25.5824H6.19062Z" fill="#FF5D29"/>
<path d="M41.8105 25.5823L47.0207 25.5824V20.4507C47.0207 17.3907 44.7534 14.8512 41.8105 14.4219V25.5823Z" fill="#FF5D29"/>
<path d="M0.980469 28.3965V48.0006H47.0201V28.3965H0.980469ZM13.969 32.7904H34.0315V43.6172H13.969V32.7904Z" fill="#FF5D29"/>
<path d="M9.00391 3.85041V7.70841C10.0922 6.93488 11.4205 6.47803 12.8543 6.47803H35.1478C36.5816 6.47803 37.9099 6.93478 38.9982 7.70841V3.85041C38.9981 1.72387 37.2742 0 35.1478 0H12.8542C10.7278 0 9.00391 1.72387 9.00391 3.85041Z" fill="#FF5D29"/>
<path d="M9.00391 19.0312H38.9982V25.5833H9.00391V19.0312Z" fill="#FF5D29"/>
<path d="M9.004 16.2191H38.9983V13.1414C38.9983 11.0149 37.2744 9.29102 35.1479 9.29102H12.8543C10.7278 9.29102 9.00391 11.0149 9.00391 13.1414L9.004 16.2191Z" fill="#FF5D29"/>
<path d="M16.7812 35.6016H31.2188V40.8034H16.7812V35.6016Z" fill="#FF5D29"/>
</g>
<defs>
<clipPath id="clip0_1332_306">
<rect width="48" height="48" fill="white"/>
</clipPath>
</defs>
</svg>
