<svg width="22" height="22" viewBox="0 0 22 22" fill="none" xmlns="http://www.w3.org/2000/svg">
<rect width="22" height="22" rx="11" fill="#FF5D29"/>
<path d="M10.9686 16.7891C11.0382 16.8559 11.1211 16.909 11.2124 16.9452C11.3038 16.9814 11.4017 17 11.5006 17C11.5996 17 11.6975 16.9814 11.7888 16.9452C11.8802 16.909 11.963 16.8559 12.0327 16.7891L15.7796 13.2235C15.9207 13.0893 16 12.9071 16 12.7172C16 12.5273 15.9207 12.3452 15.7796 12.2109C15.6385 12.0767 15.4471 12.0012 15.2476 12.0012C15.048 12.0012 14.8566 12.0767 14.7155 12.2109L11.5006 15.2773L8.28579 12.2109C8.21612 12.1441 8.13324 12.091 8.04192 12.0548C7.9506 12.0186 7.85265 12 7.75373 12C7.6548 12 7.55685 12.0186 7.46553 12.0548C7.37421 12.091 7.29133 12.1441 7.22167 12.2109C7.15143 12.2772 7.09568 12.3561 7.05763 12.443C7.01959 12.5299 7 12.6231 7 12.7172C7 12.8114 7.01959 12.9046 7.05763 12.9915C7.09568 13.0784 7.15143 13.1572 7.22167 13.2235L10.9686 16.7891Z" fill="white" fill-opacity="0.6"/>
<path d="M11.2118 9.94514C11.1204 9.90893 11.0375 9.85587 10.9679 9.78901L7.22042 6.22262C7.07929 6.08831 7 5.90614 7 5.7162C7 5.52625 7.07929 5.34408 7.22042 5.20977C7.36155 5.07546 7.55297 5 7.75256 5C7.95215 5 8.14356 5.07546 8.28469 5.20977L11.5 8.27686L14.7153 5.20977C14.8564 5.07546 15.0479 5 15.2474 5C15.447 5 15.6384 5.07546 15.7796 5.20977C15.9207 5.34408 16 5.52625 16 5.7162C16 5.90614 15.9207 6.08831 15.7796 6.22262L12.0321 9.78901C11.9625 9.85587 11.8796 9.90893 11.7882 9.94514C11.6969 9.98136 11.5989 10 11.5 10C11.4011 10 11.3031 9.98136 11.2118 9.94514Z" fill="white"/>
</svg>
