<svg width="20" height="20" viewBox="0 0 20 20" fill="none" xmlns="http://www.w3.org/2000/svg">
<g clip-path="url(#clip0_1879_385)">
<path d="M13.8327 6.16797H6.16602V13.8346H13.8327V6.16797Z" fill="#516AF5"/>
<path d="M18.6243 10.9596C19.1994 10.9596 19.5827 10.5763 19.5827 10.0013C19.5827 9.52214 19.1994 9.04297 18.6243 9.04297H17.666V7.1263H18.6243C19.1994 7.1263 19.5827 6.74297 19.5827 6.16797C19.5827 5.6888 19.1994 5.20964 18.6243 5.20964H17.666V4.2513C17.666 3.19714 16.8035 2.33464 15.7494 2.33464H14.791V1.3763C14.791 0.897135 14.4077 0.417969 13.8327 0.417969C13.3535 0.417969 12.8743 0.801302 12.8743 1.3763V2.33464H10.9577V1.3763C10.9577 0.897135 10.5743 0.417969 9.99935 0.417969C9.42435 0.417969 9.04102 0.801302 9.04102 1.3763V2.33464H7.12435V1.3763C7.12435 0.897135 6.74102 0.417969 6.16602 0.417969C5.59102 0.417969 5.20768 0.801302 5.20768 1.3763V2.33464H4.24935C3.19518 2.33464 2.33268 3.19714 2.33268 4.2513V5.20964H1.37435C0.799349 5.20964 0.416016 5.59297 0.416016 6.16797C0.416016 6.64714 0.799349 7.1263 1.37435 7.1263H2.33268V9.04297H1.37435C0.799349 9.04297 0.416016 9.4263 0.416016 10.0013C0.416016 10.4805 0.799349 10.9596 1.37435 10.9596H2.33268V12.8763H1.37435C0.799349 12.8763 0.416016 13.2596 0.416016 13.8346C0.416016 14.3138 0.799349 14.793 1.37435 14.793H2.33268V15.7513C2.33268 16.8055 3.19518 17.668 4.24935 17.668H5.20768V18.6263C5.20768 19.1055 5.59102 19.5846 6.16602 19.5846C6.74102 19.5846 7.12435 19.2013 7.12435 18.6263V17.668H9.04102V18.6263C9.04102 19.1055 9.42435 19.5846 9.99935 19.5846C10.5743 19.5846 10.9577 19.2013 10.9577 18.6263V17.668H12.8743V18.6263C12.8743 19.1055 13.2577 19.5846 13.8327 19.5846C14.3118 19.5846 14.791 19.2013 14.791 18.6263V17.668H15.7494C16.8035 17.668 17.666 16.8055 17.666 15.7513V14.793H18.6243C19.1994 14.793 19.5827 14.4096 19.5827 13.8346C19.5827 13.3555 19.1994 12.8763 18.6243 12.8763H17.666V10.9596H18.6243ZM15.7494 15.7513H4.24935V4.2513H15.7494V15.7513Z" fill="#516AF5"/>
</g>
<defs>
<clipPath id="clip0_1879_385">
<rect width="20" height="20" fill="white"/>
</clipPath>
</defs>
</svg>
