<svg width="20" height="20" viewBox="0 0 20 20" fill="none" xmlns="http://www.w3.org/2000/svg">
<g clip-path="url(#clip0_1954_232)">
<path d="M9.73848 18.6619C6.65866 15.0507 9.28009 9.35114 13.9991 9.29024L8.96287 0.56903C8.86083 0.395742 8.71532 0.252093 8.54073 0.152293C8.36615 0.0524921 8.16853 -2.88819e-06 7.96743 1.19181e-10C7.76633 2.88843e-06 7.56872 0.0525037 7.39413 0.152309C7.21955 0.252115 7.07405 0.395768 6.97201 0.569059L1.76791 9.58328C1.1867 10.5903 0.880774 11.7326 0.880859 12.8953C0.880945 14.058 1.18704 15.2003 1.76839 16.2072C2.34974 17.2142 3.18587 18.0504 4.19277 18.6318C5.19966 19.2133 6.34185 19.5195 7.50457 19.5197C8.44553 19.5773 9.38972 19.4881 10.3032 19.2552C10.0997 19.0725 9.91084 18.8742 9.73848 18.6619Z" fill="black"/>
<path d="M14.1234 10.001C12.7973 10.0032 11.5262 10.5312 10.5888 11.4692C9.65141 12.4073 9.1243 13.6788 9.12305 15.0049C9.39865 21.6451 18.8537 21.6395 19.1274 15.0049C19.1259 13.6782 18.5982 12.4063 17.6601 11.4682C16.722 10.5301 15.4501 10.0024 14.1234 10.001ZM14.0984 13.132C13.9016 13.1414 13.7162 13.227 13.5814 13.3707C13.4466 13.5144 13.3731 13.7049 13.3763 13.9019C13.3796 14.0989 13.4594 14.2869 13.5989 14.4261C13.7383 14.5652 13.9265 14.6446 14.1235 14.6475C14.4829 14.6477 14.8298 14.7792 15.099 15.0174C15.3682 15.2556 15.541 15.5839 15.585 15.9407C15.6289 16.2974 15.5409 16.6579 15.3375 16.9543C15.1342 17.2506 14.8295 17.4624 14.4808 17.5498V18.2396C14.4792 18.3333 14.4408 18.4226 14.3739 18.4882C14.3071 18.5539 14.2171 18.5907 14.1234 18.5907C14.0297 18.5907 13.9397 18.5539 13.8729 18.4882C13.8061 18.4226 13.7677 18.3333 13.766 18.2396V17.5498C13.4481 17.4698 13.1658 17.2862 12.9639 17.0279C12.762 16.7697 12.6518 16.4515 12.6508 16.1237C12.6517 16.0297 12.6895 15.9399 12.756 15.8736C12.8226 15.8073 12.9126 15.7699 13.0065 15.7694C13.1004 15.7689 13.1908 15.8055 13.258 15.8711C13.3252 15.9367 13.3639 16.0262 13.3657 16.1201C13.3657 16.2698 13.41 16.4162 13.4931 16.5407C13.5762 16.6652 13.6944 16.7623 13.8326 16.8198C13.9709 16.8773 14.123 16.8925 14.2699 16.8635C14.4168 16.8346 14.5518 16.7628 14.658 16.6571C14.7641 16.5515 14.8365 16.4168 14.8662 16.2701C14.8958 16.1233 14.8813 15.9711 14.8245 15.8326C14.7677 15.6941 14.6711 15.5755 14.547 15.4918C14.4229 15.4081 14.2767 15.3631 14.127 15.3623C13.7674 15.3636 13.4199 15.2331 13.15 14.9955C12.8801 14.7579 12.7065 14.4297 12.6621 14.0729C12.6177 13.7161 12.7054 13.3554 12.9088 13.0589C13.1122 12.7624 13.4171 12.5506 13.766 12.4636V11.7702C13.766 11.6754 13.8037 11.5845 13.8707 11.5175C13.9377 11.4505 14.0286 11.4128 14.1234 11.4128C14.2182 11.4128 14.3091 11.4505 14.3762 11.5175C14.4432 11.5845 14.4808 11.6754 14.4808 11.7702V12.4636C14.7996 12.542 15.0829 12.7252 15.2851 12.9838C15.4873 13.2424 15.5968 13.5615 15.596 13.8898C15.596 13.9846 15.5584 14.0755 15.4913 14.1425C15.4243 14.2095 15.3334 14.2472 15.2386 14.2472C15.1438 14.2472 15.0529 14.2095 14.9858 14.1425C14.9188 14.0755 14.8812 13.9846 14.8812 13.8898C14.8811 13.7881 14.8606 13.6876 14.821 13.594C14.7813 13.5005 14.7232 13.4158 14.6502 13.3452C14.5772 13.2745 14.4907 13.2192 14.3959 13.1826C14.3011 13.146 14.2 13.1288 14.0984 13.132Z" fill="black"/>
</g>
<defs>
<clipPath id="clip0_1954_232">
<rect width="20" height="20" fill="white"/>
</clipPath>
</defs>
</svg>
