<svg width="20" height="20" viewBox="0 0 20 20" fill="none" xmlns="http://www.w3.org/2000/svg">
<g clip-path="url(#clip0_1879_360)">
<path d="M19.9985 14.21C19.9516 11.6006 19.6434 8.96192 19.1379 6.29864C18.7262 4.44825 17.245 2.8002 14.8782 2.6795C13.1309 2.60762 12.793 3.60293 10.8133 3.58379C10.2711 3.58028 9.72935 3.58028 9.18716 3.58379C7.20708 3.60293 6.86841 2.60762 5.12193 2.6795C2.75474 2.8002 1.2274 4.44395 0.8606 6.29864C0.354741 8.96192 0.0465378 11.6002 5.33938e-05 14.2096C-0.0112747 16.0264 1.78248 17.235 2.96607 17.3178C5.2524 17.4904 7.0688 13.4588 8.45279 13.4584C9.48443 13.4643 10.5157 13.4647 11.5473 13.4584C12.9317 13.4584 14.7465 17.4908 17.0344 17.3182C18.2176 17.2354 20.0579 16.0186 19.9989 14.21H19.9985ZM7.45708 9.11856H6.39068V10.185C6.39068 10.635 6.02583 10.9998 5.57583 10.9998C5.12583 10.9998 4.76099 10.635 4.76099 10.185V9.11856H3.69458C3.24458 9.11856 2.87974 8.75371 2.87974 8.30371C2.87974 7.85371 3.24458 7.48887 3.69458 7.48887H4.76099V6.42246C4.76099 5.97246 5.12583 5.60762 5.57583 5.60762C6.02583 5.60762 6.39068 5.97246 6.39068 6.42246V7.48887H7.45708C7.90708 7.48887 8.27193 7.85371 8.27193 8.30371C8.27193 8.75371 7.90708 9.11856 7.45708 9.11856ZM14.0419 10.9994C13.404 11.0166 12.8735 10.5127 12.8563 9.8752C12.8395 9.23535 13.3438 8.7041 13.9813 8.6877C14.6196 8.67168 15.1508 9.1752 15.1672 9.81348C15.1833 10.4518 14.6797 10.983 14.0419 10.9994ZM15.9657 7.91934C15.3278 7.93731 14.7961 7.43301 14.7786 6.79512C14.7626 6.15606 15.2661 5.62559 15.9044 5.60801C16.5434 5.59121 17.0739 6.09551 17.0911 6.73379C17.1079 7.37168 16.6032 7.90332 15.9657 7.91934Z" fill="#516AF5"/>
</g>
<defs>
<clipPath id="clip0_1879_360">
<rect width="20" height="20" fill="white"/>
</clipPath>
</defs>
</svg>
