<svg width="20" height="20" viewBox="0 0 20 20" fill="none" xmlns="http://www.w3.org/2000/svg">
<path d="M11.25 11.25H8.75C8.05964 11.25 7.5 11.8096 7.5 12.5V17.5C7.5 18.1904 8.05964 18.75 8.75 18.75H11.25C11.9404 18.75 12.5 18.1904 12.5 17.5V12.5C12.5 11.8096 11.9404 11.25 11.25 11.25Z" fill="#516AF5"/>
<path d="M5 13.125H2.5C1.80964 13.125 1.25 13.6846 1.25 14.375V17.5C1.25 18.1904 1.80964 18.75 2.5 18.75H5C5.69036 18.75 6.25 18.1904 6.25 17.5V14.375C6.25 13.6846 5.69036 13.125 5 13.125Z" fill="#516AF5"/>
<path d="M17.5 8.125H15C14.3096 8.125 13.75 8.68464 13.75 9.375V17.5C13.75 18.1904 14.3096 18.75 15 18.75H17.5C18.1904 18.75 18.75 18.1904 18.75 17.5V9.375C18.75 8.68464 18.1904 8.125 17.5 8.125Z" fill="#516AF5"/>
<path d="M3.7499 10.625C3.80196 10.625 3.85381 10.6184 3.90427 10.6056C6.14132 10.0357 8.29372 9.17418 10.3061 8.04313C12.497 6.80512 14.4986 5.25892 16.2499 3.45187V5C16.2499 5.16576 16.3157 5.32473 16.433 5.44194C16.5502 5.55915 16.7091 5.625 16.8749 5.625C17.0407 5.625 17.1996 5.55915 17.3168 5.44194C17.4341 5.32473 17.4999 5.16576 17.4999 5V1.875C17.4999 1.70924 17.4341 1.55027 17.3168 1.43306C17.1996 1.31585 17.0407 1.25 16.8749 1.25H13.7499C13.5841 1.25 13.4252 1.31585 13.308 1.43306C13.1907 1.55027 13.1249 1.70924 13.1249 1.875C13.1249 2.04076 13.1907 2.19973 13.308 2.31694C13.4252 2.43415 13.5841 2.5 13.7499 2.5H15.4224C13.7395 4.25556 11.8096 5.75635 9.69365 6.955C7.7766 8.03136 5.72631 8.85089 3.59552 9.3925C3.44618 9.42855 3.31534 9.51835 3.228 9.64475C3.14066 9.77114 3.10294 9.92528 3.12203 10.0777C3.14113 10.2302 3.2157 10.3702 3.33152 10.4712C3.44733 10.5721 3.59627 10.6269 3.7499 10.625Z" fill="#516AF5"/>
</svg>
