<svg width="20" height="20" viewBox="0 0 20 20" fill="none" xmlns="http://www.w3.org/2000/svg">
<g clip-path="url(#clip0_1879_340)">
<path d="M11.7495 0.384766H8.25188L7.64844 4.00556H12.353L11.7495 0.384766Z" fill="#FF6737"/>
<path d="M18.379 0.769944C18.3023 0.539926 18.087 0.384766 17.8445 0.384766H12.8906L13.4941 4.00556H19.4575L18.379 0.769944Z" fill="#FF6737"/>
<path d="M12.4549 5.13281H7.54688V8.75361H12.4549V5.13281Z" fill="#FF6737"/>
<path d="M13.5789 5.13281V8.75353H17.2799V12.4545H2.71653V8.75353H6.41744V5.13281H0.382812V8.1902C0.382812 8.50135 0.635066 8.75357 0.946214 8.75357H1.58973V13.018V18.677V19.0526C1.58973 19.3637 1.84198 19.616 2.15313 19.616H17.8433C18.1544 19.616 18.4067 19.3637 18.4067 19.0526V18.677V13.018V8.75357H19.0502C19.3613 8.75357 19.6136 8.50135 19.6136 8.1902V5.13281H13.5789Z" fill="#FF6737"/>
<path d="M2.15599 0.384766C1.9135 0.384766 1.6982 0.539926 1.62151 0.769982L0.542969 4.00556H6.50638L7.10986 0.384766H2.15599Z" fill="#FF6737"/>
</g>
<defs>
<clipPath id="clip0_1879_340">
<rect width="20" height="20" fill="white"/>
</clipPath>
</defs>
</svg>
