<svg width="20" height="20" viewBox="0 0 20 20" fill="none" xmlns="http://www.w3.org/2000/svg">
<g clip-path="url(#clip0_1879_331)">
<path fill-rule="evenodd" clip-rule="evenodd" d="M9.95558 15.7283C8.37115 15.7283 6.94995 14.961 5.96215 13.7527C5.79142 13.5435 5.51562 13.4507 5.25389 13.5135L1.91712 14.3128C1.32237 14.4544 0.856145 14.915 0.70699 15.5079L-0.107269 18.7405C-0.16074 18.9507 -0.113836 19.1739 0.0193724 19.3446C0.153519 19.5154 0.358022 19.6158 0.574719 19.6158H19.3364C19.5531 19.6158 19.7576 19.5163 19.8909 19.3456C20.0241 19.1749 20.0719 18.9516 20.0194 18.7415L19.2182 15.5407C19.07 14.9478 18.6047 14.4863 18.0109 14.3428L14.6451 13.5304C14.3833 13.4675 14.1085 13.5595 13.9368 13.7677C12.95 14.9675 11.5334 15.7283 9.95558 15.7283Z" fill="#FF6737"/>
<path fill-rule="evenodd" clip-rule="evenodd" d="M14.1782 4.13672H5.7354C4.82827 4.13672 4.09375 4.87218 4.09375 5.77837V8.12359C4.09375 9.02978 4.82827 9.76524 5.7354 9.76524H14.1782C15.0853 9.76524 15.8198 9.02978 15.8198 8.12359V5.77837C15.8198 4.87218 15.0853 4.13672 14.1782 4.13672ZM7.14253 7.65454H8.08062C8.46899 7.65454 8.78418 7.33935 8.78418 6.95098C8.78418 6.56261 8.46899 6.24741 8.08062 6.24741H7.14253C6.75416 6.24741 6.43897 6.56261 6.43897 6.95098C6.43897 7.33935 6.75416 7.65454 7.14253 7.65454Z" fill="#FF6737"/>
<path fill-rule="evenodd" clip-rule="evenodd" d="M5.41444 10.684C6.16304 12.6334 7.92476 13.987 9.95572 13.987C11.9867 13.987 13.7484 12.6334 14.497 10.684C14.3929 10.6971 5.51857 10.6971 5.41444 10.684ZM5.30469 3.23467C5.44446 3.21122 14.467 3.21122 14.6068 3.23467C14.4069 2.67088 14.1039 2.15306 13.7109 1.71685C12.9398 0.859437 11.891 0.384766 10.8 0.384766C10.2437 0.384766 9.66679 0.384766 9.10957 0.384766C8.01951 0.384766 6.97073 0.859437 6.19962 1.71591C5.8075 2.15306 5.50356 2.67088 5.30469 3.23467Z" fill="#FF6737"/>
</g>
<defs>
<clipPath id="clip0_1879_331">
<rect width="20" height="20" fill="white"/>
</clipPath>
</defs>
</svg>
