<svg width="20" height="20" viewBox="0 0 20 20" fill="none" xmlns="http://www.w3.org/2000/svg">
<path d="M6.875 3.75L8.125 1.25H7.5L6.25 3.75H6.875Z" fill="black"/>
<path d="M5.625 3.75L6.875 1.25H1.875C1.52985 1.25 1.25 1.52985 1.25 1.875V3.75H5.625ZM4.375 1.875C4.72019 1.875 5 2.15481 5 2.5C5 2.84519 4.72019 3.125 4.375 3.125C4.02985 3.125 3.75 2.84519 3.75 2.5C3.75 2.15481 4.02985 1.875 4.375 1.875ZM2.5 1.875C2.84519 1.875 3.125 2.15481 3.125 2.5C3.125 2.84519 2.84519 3.125 2.5 3.125C2.15485 3.125 1.875 2.84519 1.875 2.5C1.875 2.15481 2.15485 1.875 2.5 1.875Z" fill="black"/>
<path d="M18.75 3.75V1.875C18.75 1.52985 18.4702 1.25 18.125 1.25H8.75L7.5 3.75H18.75Z" fill="black"/>
<path d="M7.5 12.1875C7.5 12.0147 7.63977 11.875 7.8125 11.875H8.75V10.2393L6.25 11.7392V14.7604L8.75 13.2603V12.5H7.8125C7.63977 12.5 7.5 12.3602 7.5 12.1875Z" fill="black"/>
<path d="M5.625 11.7392L3.125 10.2393V13.2603L5.625 14.7604V11.7392Z" fill="black"/>
<path d="M5.93747 11.198L8.45502 9.68742L5.93747 8.17676L3.41992 9.68742L5.93747 11.198Z" fill="black"/>
<path d="M14.0625 11.198L16.58 9.68742L14.0625 8.17676L11.5449 9.68742L14.0625 11.198Z" fill="black"/>
<path d="M1.25 4.375V18.125C1.25 18.4702 1.52985 18.75 1.875 18.75H18.125C18.4702 18.75 18.75 18.4702 18.75 18.125V4.375H1.25ZM17.5 13.4375C17.5 13.5474 17.4423 13.649 17.3483 13.7054L14.2233 15.5804C14.1739 15.61 14.118 15.625 14.0625 15.625C14.0069 15.625 13.9511 15.61 13.9016 15.5804L10.7766 13.7054C10.6826 13.649 10.625 13.5474 10.625 13.4375V12.5002H9.375V13.4375C9.375 13.5474 9.31732 13.649 9.22333 13.7054L6.09833 15.5804C6.04889 15.61 5.99304 15.625 5.9375 15.625C5.88196 15.625 5.82611 15.61 5.77667 15.5804L2.65167 13.7054C2.55768 13.649 2.5 13.5474 2.5 13.4375V9.6875C2.5 9.57764 2.55768 9.47601 2.65167 9.41956L5.77667 7.54456C5.87555 7.48535 5.99945 7.48535 6.09833 7.54456L9.22333 9.41956C9.31732 9.47601 9.375 9.57764 9.375 9.6875V11.8752H10.625V9.6875C10.625 9.57764 10.6826 9.47601 10.7766 9.41956L13.9016 7.54456C14.0005 7.48535 14.1244 7.48535 14.2233 7.54456L17.3483 9.41956C17.4423 9.47601 17.5 9.57764 17.5 9.6875V13.4375Z" fill="black"/>
<path d="M13.75 11.7392L11.25 10.2393V11.875H12.1875C12.3603 11.875 12.5 12.0147 12.5 12.1875C12.5 12.3602 12.3603 12.5 12.1875 12.5H11.25V13.2603L13.75 14.7604V11.7392Z" fill="black"/>
<path d="M14.375 11.7392V14.7604L16.875 13.2603V10.2393L14.375 11.7392Z" fill="black"/>
</svg>
