<svg width="17" height="18" viewBox="0 0 17 18" fill="none" xmlns="http://www.w3.org/2000/svg">
<path d="M9.99972 0C6.22972 0 3.18972 2.95 2.99972 6.66L1.07972 9.19C0.839717 9.5 1.07972 10 1.49972 10H2.99972V13C2.99972 14.11 3.88972 15 4.99972 15H5.99972V18H12.9997V13.31C15.3697 12.19 16.9997 9.8 16.9997 7C16.9997 3.14 13.8797 0 9.99972 0ZM6.99972 8C6.44972 8 5.99972 7.55 5.99972 7C5.99972 6.45 6.44972 6 6.99972 6C7.54972 6 7.99972 6.45 7.99972 7C7.99972 7.55 7.54972 8 6.99972 8ZM9.99972 8C9.44972 8 8.99972 7.55 8.99972 7C8.99972 6.45 9.44972 6 9.99972 6C10.5497 6 10.9997 6.45 10.9997 7C10.9997 7.55 10.5497 8 9.99972 8ZM12.9997 8C12.4497 8 11.9997 7.55 11.9997 7C11.9997 6.45 12.4497 6 12.9997 6C13.5497 6 13.9997 6.45 13.9997 7C13.9997 7.55 13.5497 8 12.9997 8Z" fill="black"/>
</svg>
